%TF.GenerationSoftware,KiCad,Pcbnew,7.0.10*%
%TF.CreationDate,2024-01-07T23:47:08-08:00*%
%TF.ProjectId,AS5048B,41533530-3438-4422-9e6b-696361645f70,rev?*%
%TF.SameCoordinates,Original*%
%TF.FileFunction,Legend,Top*%
%TF.FilePolarity,Positive*%
%FSLAX46Y46*%
G04 Gerber Fmt 4.6, Leading zero omitted, Abs format (unit mm)*
G04 Created by KiCad (PCBNEW 7.0.10) date 2024-01-07 23:47:08*
%MOMM*%
%LPD*%
G01*
G04 APERTURE LIST*
%ADD10C,0.150000*%
%ADD11C,0.152400*%
%ADD12C,0.120000*%
G04 APERTURE END LIST*
D10*
X150550057Y-150095238D02*
X150502438Y-150190476D01*
X150502438Y-150190476D02*
X150407200Y-150285714D01*
X150407200Y-150285714D02*
X150264342Y-150428571D01*
X150264342Y-150428571D02*
X150216723Y-150523809D01*
X150216723Y-150523809D02*
X150216723Y-150619047D01*
X150454819Y-150571428D02*
X150407200Y-150666666D01*
X150407200Y-150666666D02*
X150311961Y-150761904D01*
X150311961Y-150761904D02*
X150121485Y-150809523D01*
X150121485Y-150809523D02*
X149788152Y-150809523D01*
X149788152Y-150809523D02*
X149597676Y-150761904D01*
X149597676Y-150761904D02*
X149502438Y-150666666D01*
X149502438Y-150666666D02*
X149454819Y-150571428D01*
X149454819Y-150571428D02*
X149454819Y-150380952D01*
X149454819Y-150380952D02*
X149502438Y-150285714D01*
X149502438Y-150285714D02*
X149597676Y-150190476D01*
X149597676Y-150190476D02*
X149788152Y-150142857D01*
X149788152Y-150142857D02*
X150121485Y-150142857D01*
X150121485Y-150142857D02*
X150311961Y-150190476D01*
X150311961Y-150190476D02*
X150407200Y-150285714D01*
X150407200Y-150285714D02*
X150454819Y-150380952D01*
X150454819Y-150380952D02*
X150454819Y-150571428D01*
X150454819Y-149190476D02*
X150454819Y-149761904D01*
X150454819Y-149476190D02*
X149454819Y-149476190D01*
X149454819Y-149476190D02*
X149597676Y-149571428D01*
X149597676Y-149571428D02*
X149692914Y-149666666D01*
X149692914Y-149666666D02*
X149740533Y-149761904D01*
D11*
%TO.C,Q1*%
X147320300Y-152374900D02*
X147590259Y-152374900D01*
X152409739Y-152374900D02*
X152679700Y-152374900D01*
X152679700Y-152374900D02*
X152679700Y-147625100D01*
X147320300Y-147625100D02*
X147320300Y-152374900D01*
X147590261Y-147625100D02*
X147320300Y-147625100D01*
X152679700Y-147625100D02*
X152409741Y-147625100D01*
D12*
X147320300Y-150679700D02*
G75*
G03*
X147320300Y-149320300I0J679700D01*
G01*
%TD*%
M02*
