M48
; DRILL file {KiCad 7.0.10} date Sun Jan  7 23:47:17 2024
; FORMAT={-:-/ absolute / metric / decimal}
; #@! TF.CreationDate,2024-01-07T23:47:17-08:00
; #@! TF.GenerationSoftware,Kicad,Pcbnew,7.0.10
; #@! TF.FileFunction,MixedPlating,1,2
FMAT,2
METRIC
; #@! TA.AperFunction,Plated,PTH,ViaDrill
T1C0.400
; #@! TA.AperFunction,Plated,PTH,ComponentDrill
T2C2.200
%
G90
G05
T1
X142.379Y-145.096
X142.391Y-143.839
X142.391Y-146.393
X143.0Y-142.0
X144.481Y-144.03
X145.0Y-155.0
X147.0Y-155.0
X148.0Y-151.0
X150.0Y-150.0
X150.49Y-148.486
X153.875Y-156.549
X155.0Y-145.0
X156.523Y-153.857
X157.0Y-157.0
T2
G00X141.6Y-150.0
M15
G01X144.4Y-150.0
M16
G05
G00X150.0Y-143.9
M15
G01X150.0Y-141.1
M16
G05
G00X150.0Y-158.9
M15
G01X150.0Y-156.1
M16
G05
G00X155.6Y-150.0
M15
G01X158.4Y-150.0
M16
G05
M30
