%TF.GenerationSoftware,KiCad,Pcbnew,7.0.10*%
%TF.CreationDate,2024-01-07T23:47:08-08:00*%
%TF.ProjectId,AS5048B,41533530-3438-4422-9e6b-696361645f70,rev?*%
%TF.SameCoordinates,Original*%
%TF.FileFunction,Copper,L2,Bot*%
%TF.FilePolarity,Positive*%
%FSLAX46Y46*%
G04 Gerber Fmt 4.6, Leading zero omitted, Abs format (unit mm)*
G04 Created by KiCad (PCBNEW 7.0.10) date 2024-01-07 23:47:08*
%MOMM*%
%LPD*%
G01*
G04 APERTURE LIST*
G04 Aperture macros list*
%AMRoundRect*
0 Rectangle with rounded corners*
0 $1 Rounding radius*
0 $2 $3 $4 $5 $6 $7 $8 $9 X,Y pos of 4 corners*
0 Add a 4 corners polygon primitive as box body*
4,1,4,$2,$3,$4,$5,$6,$7,$8,$9,$2,$3,0*
0 Add four circle primitives for the rounded corners*
1,1,$1+$1,$2,$3*
1,1,$1+$1,$4,$5*
1,1,$1+$1,$6,$7*
1,1,$1+$1,$8,$9*
0 Add four rect primitives between the rounded corners*
20,1,$1+$1,$2,$3,$4,$5,0*
20,1,$1+$1,$4,$5,$6,$7,0*
20,1,$1+$1,$6,$7,$8,$9,0*
20,1,$1+$1,$8,$9,$2,$3,0*%
%AMFreePoly0*
4,1,19,0.550000,-0.750000,0.000000,-0.750000,0.000000,-0.744911,-0.071157,-0.744911,-0.207708,-0.704816,-0.327430,-0.627875,-0.420627,-0.520320,-0.479746,-0.390866,-0.500000,-0.250000,-0.500000,0.250000,-0.479746,0.390866,-0.420627,0.520320,-0.327430,0.627875,-0.207708,0.704816,-0.071157,0.744911,0.000000,0.744911,0.000000,0.750000,0.550000,0.750000,0.550000,-0.750000,0.550000,-0.750000,
$1*%
%AMFreePoly1*
4,1,19,0.000000,0.744911,0.071157,0.744911,0.207708,0.704816,0.327430,0.627875,0.420627,0.520320,0.479746,0.390866,0.500000,0.250000,0.500000,-0.250000,0.479746,-0.390866,0.420627,-0.520320,0.327430,-0.627875,0.207708,-0.704816,0.071157,-0.744911,0.000000,-0.744911,0.000000,-0.750000,-0.550000,-0.750000,-0.550000,0.750000,0.000000,0.750000,0.000000,0.744911,0.000000,0.744911,
$1*%
G04 Aperture macros list end*
%TA.AperFunction,ComponentPad*%
%ADD10O,7.000000X4.000000*%
%TD*%
%TA.AperFunction,ComponentPad*%
%ADD11O,4.000000X7.000000*%
%TD*%
%TA.AperFunction,SMDPad,CuDef*%
%ADD12RoundRect,0.237500X0.237500X-0.300000X0.237500X0.300000X-0.237500X0.300000X-0.237500X-0.300000X0*%
%TD*%
%TA.AperFunction,SMDPad,CuDef*%
%ADD13RoundRect,0.237500X-0.237500X0.300000X-0.237500X-0.300000X0.237500X-0.300000X0.237500X0.300000X0*%
%TD*%
%TA.AperFunction,SMDPad,CuDef*%
%ADD14FreePoly0,270.000000*%
%TD*%
%TA.AperFunction,SMDPad,CuDef*%
%ADD15R,1.500000X1.000000*%
%TD*%
%TA.AperFunction,SMDPad,CuDef*%
%ADD16FreePoly1,270.000000*%
%TD*%
%TA.AperFunction,SMDPad,CuDef*%
%ADD17RoundRect,0.150000X-0.388909X0.601041X-0.601041X0.388909X0.388909X-0.601041X0.601041X-0.388909X0*%
%TD*%
%TA.AperFunction,SMDPad,CuDef*%
%ADD18RoundRect,0.250000X0.000000X0.353553X-0.353553X0.000000X0.000000X-0.353553X0.353553X0.000000X0*%
%TD*%
%TA.AperFunction,ViaPad*%
%ADD19C,0.800000*%
%TD*%
%TA.AperFunction,Conductor*%
%ADD20C,0.130000*%
%TD*%
G04 APERTURE END LIST*
D10*
%TO.P,REF\u002A\u002A,1*%
%TO.N,N/C*%
X143000000Y-150000000D03*
D11*
X150000000Y-142500000D03*
X150000000Y-157500000D03*
D10*
X157000000Y-150000000D03*
%TD*%
D12*
%TO.P,C1,1*%
%TO.N,GND*%
X144452482Y-145710513D03*
%TO.P,C1,2*%
%TO.N,Net-(Q1-VDD3V)*%
X144452482Y-143985513D03*
%TD*%
D13*
%TO.P,C2,1*%
%TO.N,+5V*%
X146317537Y-143998555D03*
%TO.P,C2,2*%
%TO.N,GND*%
X146317537Y-145723555D03*
%TD*%
D14*
%TO.P,JP1,1,A*%
%TO.N,/PWM*%
X142378749Y-143795817D03*
D15*
%TO.P,JP1,2,C*%
%TO.N,Net-(J1-Pin_4)*%
X142378749Y-145095817D03*
D16*
%TO.P,JP1,3,B*%
%TO.N,/I2C*%
X142378749Y-146395817D03*
%TD*%
D17*
%TO.P,Je,1,Pin_1*%
%TO.N,+5V*%
X156517678Y-153866027D03*
%TO.P,Je,2,Pin_2*%
%TO.N,GND*%
X155633794Y-154749911D03*
%TO.P,Je,3,Pin_3*%
%TO.N,Net-(J1-Pin_3)*%
X154749911Y-155633794D03*
%TO.P,Je,4,Pin_4*%
%TO.N,Net-(J1-Pin_4)*%
X153866027Y-156517678D03*
D18*
%TO.P,Je,MP*%
%TO.N,N/C*%
X159487526Y-154219581D03*
X154219581Y-159487526D03*
%TD*%
D19*
%TO.N,Net-(J1-Pin_3)*%
X147000000Y-155000000D03*
%TO.N,GND*%
X145000000Y-155000000D03*
X143000000Y-142000000D03*
X157000000Y-157000000D03*
X155000000Y-145000000D03*
X148000000Y-151000000D03*
X150000000Y-150000000D03*
%TO.N,+5V*%
X150490162Y-148485863D03*
X156522563Y-153857306D03*
%TO.N,Net-(Q1-VDD3V)*%
X144481140Y-144029999D03*
%TO.N,Net-(J1-Pin_4)*%
X142378749Y-145095817D03*
X153874853Y-156548501D03*
%TO.N,/I2C*%
X142390521Y-146393094D03*
%TO.N,/PWM*%
X142390521Y-143839087D03*
%TD*%
D20*
%TO.N,Net-(J1-Pin_3)*%
X152446117Y-153330000D02*
X148670000Y-153330000D01*
X154749911Y-155633794D02*
X152446117Y-153330000D01*
X148670000Y-153330000D02*
X147000000Y-155000000D01*
%TO.N,GND*%
X156187357Y-157000000D02*
X157000000Y-157000000D01*
%TO.N,+5V*%
X150000000Y-148000000D02*
X150004299Y-148000000D01*
X150004299Y-148000000D02*
X150490162Y-148485863D01*
X150000000Y-148000000D02*
X146000000Y-144000000D01*
%TO.N,Net-(J1-Pin_4)*%
X154001122Y-156652773D02*
X153866027Y-156517678D01*
%TD*%
%TA.AperFunction,Conductor*%
%TO.N,GND*%
G36*
X149020398Y-138475885D02*
G01*
X149071696Y-138523322D01*
X149089204Y-138590963D01*
X149067364Y-138657331D01*
X149013109Y-138701356D01*
X149010917Y-138702248D01*
X148933239Y-138733003D01*
X148657516Y-138884584D01*
X148657504Y-138884591D01*
X148402978Y-139069515D01*
X148402968Y-139069523D01*
X148173608Y-139284907D01*
X148173606Y-139284909D01*
X147973054Y-139527334D01*
X147973051Y-139527338D01*
X147804464Y-139792990D01*
X147804461Y-139792996D01*
X147670499Y-140077678D01*
X147670497Y-140077683D01*
X147573270Y-140376916D01*
X147514311Y-140685988D01*
X147514310Y-140685995D01*
X147499500Y-140921405D01*
X147499500Y-143434104D01*
X147479815Y-143501143D01*
X147427011Y-143546898D01*
X147357853Y-143556842D01*
X147294297Y-143527817D01*
X147257794Y-143473109D01*
X147228445Y-143384539D01*
X147137877Y-143237705D01*
X147015887Y-143115715D01*
X146924666Y-143059450D01*
X146869055Y-143025148D01*
X146869050Y-143025146D01*
X146829692Y-143012104D01*
X146705290Y-142970881D01*
X146705288Y-142970880D01*
X146604215Y-142960555D01*
X146030867Y-142960555D01*
X146030849Y-142960556D01*
X145929784Y-142970880D01*
X145766021Y-143025147D01*
X145766018Y-143025148D01*
X145619185Y-143115716D01*
X145497197Y-143237704D01*
X145497191Y-143237712D01*
X145494564Y-143241971D01*
X145442613Y-143288692D01*
X145373649Y-143299908D01*
X145309570Y-143272060D01*
X145283492Y-143241962D01*
X145272822Y-143224663D01*
X145150833Y-143102674D01*
X145150832Y-143102673D01*
X145025144Y-143025148D01*
X145004000Y-143012106D01*
X145003995Y-143012104D01*
X145002551Y-143011625D01*
X144840235Y-142957839D01*
X144840233Y-142957838D01*
X144739160Y-142947513D01*
X144165812Y-142947513D01*
X144165794Y-142947514D01*
X144064729Y-142957838D01*
X143900966Y-143012105D01*
X143900963Y-143012106D01*
X143754133Y-143102672D01*
X143634391Y-143222414D01*
X143573068Y-143255898D01*
X143503376Y-143250914D01*
X143447443Y-143209042D01*
X143442393Y-143201769D01*
X143435888Y-143191647D01*
X143435884Y-143191641D01*
X143341640Y-143082878D01*
X143341638Y-143082875D01*
X143232986Y-142988728D01*
X143232965Y-142988713D01*
X143111915Y-142910919D01*
X143111892Y-142910906D01*
X142980312Y-142850816D01*
X142976868Y-142849937D01*
X142843031Y-142810638D01*
X142843021Y-142810635D01*
X142715070Y-142792239D01*
X142700711Y-142790175D01*
X142700710Y-142790175D01*
X142644352Y-142790175D01*
X142644335Y-142790170D01*
X142592985Y-142790170D01*
X142164513Y-142790170D01*
X142113193Y-142790170D01*
X142113146Y-142790175D01*
X142056787Y-142790175D01*
X141923249Y-142809375D01*
X141923247Y-142809375D01*
X141914472Y-142810636D01*
X141776380Y-142851184D01*
X141776367Y-142851189D01*
X141645605Y-142910906D01*
X141645582Y-142910919D01*
X141524532Y-142988713D01*
X141524511Y-142988729D01*
X141415879Y-143082858D01*
X141415860Y-143082875D01*
X141415859Y-143082877D01*
X141321610Y-143191647D01*
X141321608Y-143191649D01*
X141321608Y-143191650D01*
X141321606Y-143191653D01*
X141243880Y-143312595D01*
X141243878Y-143312601D01*
X141184091Y-143443517D01*
X141143583Y-143581473D01*
X141143583Y-143581475D01*
X141123102Y-143723927D01*
X141123102Y-144345819D01*
X141128248Y-144417772D01*
X141128250Y-144417781D01*
X141131790Y-144429840D01*
X141133150Y-144480370D01*
X141135487Y-144480622D01*
X141128250Y-144547933D01*
X141128249Y-144547952D01*
X141128249Y-145643687D01*
X141128250Y-145643693D01*
X141134658Y-145703302D01*
X141134805Y-145703924D01*
X141134861Y-145705197D01*
X141135487Y-145711013D01*
X141135123Y-145711052D01*
X141136865Y-145750080D01*
X141123102Y-145845813D01*
X141123102Y-146467706D01*
X141143583Y-146610158D01*
X141143583Y-146610160D01*
X141163536Y-146678114D01*
X141184091Y-146748117D01*
X141211673Y-146808512D01*
X141243878Y-146879032D01*
X141243878Y-146879034D01*
X141243881Y-146879038D01*
X141321607Y-146999983D01*
X141321611Y-146999988D01*
X141321613Y-146999992D01*
X141415857Y-147108755D01*
X141415859Y-147108758D01*
X141524511Y-147202905D01*
X141524520Y-147202911D01*
X141524523Y-147202914D01*
X141524528Y-147202917D01*
X141524532Y-147202920D01*
X141630754Y-147271185D01*
X141676509Y-147323988D01*
X141686453Y-147393147D01*
X141657428Y-147456703D01*
X141598650Y-147494477D01*
X141563715Y-147499500D01*
X141421406Y-147499500D01*
X141185995Y-147514310D01*
X141185988Y-147514311D01*
X140876916Y-147573270D01*
X140577683Y-147670497D01*
X140577678Y-147670499D01*
X140292996Y-147804461D01*
X140292990Y-147804464D01*
X140027338Y-147973051D01*
X140027334Y-147973054D01*
X139784909Y-148173606D01*
X139784907Y-148173608D01*
X139569523Y-148402968D01*
X139569515Y-148402978D01*
X139384591Y-148657504D01*
X139384584Y-148657516D01*
X139233002Y-148933241D01*
X139233001Y-148933242D01*
X139117181Y-149225771D01*
X139117180Y-149225774D01*
X139038934Y-149530523D01*
X139038932Y-149530536D01*
X138999500Y-149842670D01*
X138999500Y-150157329D01*
X139038932Y-150469463D01*
X139038934Y-150469476D01*
X139117180Y-150774225D01*
X139117181Y-150774228D01*
X139233001Y-151066757D01*
X139233002Y-151066758D01*
X139233004Y-151066763D01*
X139233006Y-151066766D01*
X139384584Y-151342484D01*
X139384586Y-151342488D01*
X139384591Y-151342495D01*
X139569515Y-151597021D01*
X139569523Y-151597031D01*
X139784907Y-151826391D01*
X139784909Y-151826393D01*
X140027334Y-152026945D01*
X140027338Y-152026948D01*
X140237648Y-152160414D01*
X140292993Y-152195537D01*
X140394930Y-152243505D01*
X140577678Y-152329500D01*
X140577682Y-152329501D01*
X140577685Y-152329503D01*
X140876921Y-152426731D01*
X141185985Y-152485688D01*
X141185990Y-152485688D01*
X141185995Y-152485689D01*
X141421406Y-152500500D01*
X141421417Y-152500500D01*
X144578594Y-152500500D01*
X144814004Y-152485689D01*
X144814007Y-152485688D01*
X144814015Y-152485688D01*
X145123079Y-152426731D01*
X145422315Y-152329503D01*
X145707007Y-152195537D01*
X145972663Y-152026947D01*
X146215094Y-151826390D01*
X146430478Y-151597030D01*
X146615416Y-151342484D01*
X146766994Y-151066766D01*
X146778832Y-151036868D01*
X146882818Y-150774228D01*
X146882819Y-150774225D01*
X146961065Y-150469476D01*
X146961066Y-150469473D01*
X147000499Y-150157329D01*
X152999500Y-150157329D01*
X153038932Y-150469463D01*
X153038934Y-150469476D01*
X153117180Y-150774225D01*
X153117181Y-150774228D01*
X153233001Y-151066757D01*
X153233002Y-151066758D01*
X153233004Y-151066763D01*
X153233006Y-151066766D01*
X153384584Y-151342484D01*
X153384586Y-151342488D01*
X153384591Y-151342495D01*
X153569515Y-151597021D01*
X153569523Y-151597031D01*
X153784907Y-151826391D01*
X153784909Y-151826393D01*
X154027334Y-152026945D01*
X154027338Y-152026948D01*
X154237648Y-152160414D01*
X154292993Y-152195537D01*
X154394930Y-152243505D01*
X154577678Y-152329500D01*
X154577682Y-152329501D01*
X154577685Y-152329503D01*
X154876921Y-152426731D01*
X155185985Y-152485688D01*
X155185990Y-152485688D01*
X155185995Y-152485689D01*
X155421406Y-152500500D01*
X155686141Y-152500500D01*
X155753180Y-152520185D01*
X155798935Y-152572989D01*
X155808879Y-152642147D01*
X155779854Y-152705703D01*
X155745877Y-152733162D01*
X155744854Y-152733725D01*
X155743375Y-152734538D01*
X155715251Y-152758557D01*
X155410208Y-153063600D01*
X155386186Y-153091727D01*
X155307012Y-153235746D01*
X155307009Y-153235754D01*
X155264197Y-153402497D01*
X155262121Y-153401964D01*
X155238587Y-153455912D01*
X155180462Y-153494682D01*
X155170316Y-153496889D01*
X155170327Y-153496930D01*
X155003708Y-153539710D01*
X155003698Y-153539713D01*
X154859789Y-153618828D01*
X154857888Y-153620452D01*
X154857887Y-153620452D01*
X155633794Y-154396358D01*
X156763251Y-155525816D01*
X156764876Y-155523914D01*
X156843991Y-155380006D01*
X156843994Y-155379996D01*
X156886775Y-155213378D01*
X156889032Y-155213957D01*
X156912291Y-155160620D01*
X156970411Y-155121841D01*
X156981601Y-155119406D01*
X156988760Y-155117568D01*
X156988764Y-155117568D01*
X157147955Y-155076694D01*
X157287462Y-155000000D01*
X157291977Y-154997518D01*
X157291978Y-154997517D01*
X157291980Y-154997516D01*
X157307792Y-154984011D01*
X157320104Y-154973496D01*
X157625147Y-154668453D01*
X157635662Y-154656141D01*
X157649167Y-154640329D01*
X157652206Y-154634802D01*
X157711284Y-154527338D01*
X157728345Y-154496304D01*
X157769219Y-154337113D01*
X157769219Y-154172759D01*
X157728345Y-154013568D01*
X157728344Y-154013567D01*
X157728344Y-154013565D01*
X157649168Y-153869544D01*
X157649166Y-153869541D01*
X157625147Y-153841417D01*
X157625136Y-153841406D01*
X157407848Y-153624119D01*
X157377598Y-153574755D01*
X157349745Y-153489030D01*
X157349743Y-153489026D01*
X157349742Y-153489022D01*
X157255096Y-153325090D01*
X157128434Y-153184418D01*
X157128433Y-153184417D01*
X156975297Y-153073157D01*
X156975292Y-153073154D01*
X156802364Y-152996160D01*
X156797383Y-152994542D01*
X156748022Y-152964293D01*
X156542298Y-152758568D01*
X156542287Y-152758557D01*
X156514165Y-152734540D01*
X156514163Y-152734538D01*
X156511659Y-152733161D01*
X156510535Y-152732031D01*
X156508951Y-152730936D01*
X156509154Y-152730641D01*
X156462397Y-152683619D01*
X156447738Y-152615304D01*
X156472341Y-152549909D01*
X156528392Y-152508196D01*
X156571397Y-152500500D01*
X158578594Y-152500500D01*
X158814004Y-152485689D01*
X158814007Y-152485688D01*
X158814015Y-152485688D01*
X159123079Y-152426731D01*
X159422315Y-152329503D01*
X159707007Y-152195537D01*
X159972663Y-152026947D01*
X160215094Y-151826390D01*
X160430478Y-151597030D01*
X160615416Y-151342484D01*
X160766994Y-151066766D01*
X160778832Y-151036868D01*
X160882818Y-150774228D01*
X160882819Y-150774225D01*
X160961065Y-150469476D01*
X160961066Y-150469473D01*
X161000500Y-150157318D01*
X161000500Y-149842682D01*
X161000499Y-149842680D01*
X161000499Y-149842670D01*
X160961067Y-149530536D01*
X160961065Y-149530523D01*
X160882819Y-149225774D01*
X160882818Y-149225771D01*
X160766998Y-148933242D01*
X160766997Y-148933241D01*
X160766996Y-148933239D01*
X160766994Y-148933234D01*
X160615416Y-148657516D01*
X160615410Y-148657509D01*
X160615408Y-148657504D01*
X160430484Y-148402978D01*
X160430476Y-148402968D01*
X160331532Y-148297603D01*
X160215094Y-148173610D01*
X160215092Y-148173608D01*
X160215090Y-148173606D01*
X159972665Y-147973054D01*
X159972661Y-147973051D01*
X159707009Y-147804464D01*
X159707003Y-147804461D01*
X159422321Y-147670499D01*
X159422316Y-147670497D01*
X159123083Y-147573270D01*
X159123080Y-147573269D01*
X159123079Y-147573269D01*
X158968547Y-147543790D01*
X158814011Y-147514311D01*
X158814004Y-147514310D01*
X158578594Y-147499500D01*
X158578583Y-147499500D01*
X155421417Y-147499500D01*
X155421406Y-147499500D01*
X155185995Y-147514310D01*
X155185988Y-147514311D01*
X154876916Y-147573270D01*
X154577683Y-147670497D01*
X154577678Y-147670499D01*
X154292996Y-147804461D01*
X154292990Y-147804464D01*
X154027338Y-147973051D01*
X154027334Y-147973054D01*
X153784909Y-148173606D01*
X153784907Y-148173608D01*
X153569523Y-148402968D01*
X153569515Y-148402978D01*
X153384591Y-148657504D01*
X153384584Y-148657516D01*
X153233002Y-148933241D01*
X153233001Y-148933242D01*
X153117181Y-149225771D01*
X153117180Y-149225774D01*
X153038934Y-149530523D01*
X153038932Y-149530536D01*
X152999500Y-149842670D01*
X152999500Y-150157329D01*
X147000499Y-150157329D01*
X147000500Y-150157318D01*
X147000500Y-149842682D01*
X147000499Y-149842680D01*
X147000499Y-149842670D01*
X146961067Y-149530536D01*
X146961065Y-149530523D01*
X146882819Y-149225774D01*
X146882818Y-149225771D01*
X146766998Y-148933242D01*
X146766997Y-148933241D01*
X146766996Y-148933239D01*
X146766994Y-148933234D01*
X146615416Y-148657516D01*
X146615410Y-148657509D01*
X146615408Y-148657504D01*
X146430484Y-148402978D01*
X146430476Y-148402968D01*
X146331532Y-148297603D01*
X146215094Y-148173610D01*
X146215092Y-148173608D01*
X146215090Y-148173606D01*
X145972665Y-147973054D01*
X145972661Y-147973051D01*
X145707009Y-147804464D01*
X145707003Y-147804461D01*
X145422321Y-147670499D01*
X145422316Y-147670497D01*
X145123083Y-147573270D01*
X145123080Y-147573269D01*
X145123079Y-147573269D01*
X144968547Y-147543790D01*
X144814011Y-147514311D01*
X144814004Y-147514310D01*
X144578594Y-147499500D01*
X144578583Y-147499500D01*
X143193783Y-147499500D01*
X143126744Y-147479815D01*
X143080989Y-147427011D01*
X143071045Y-147357853D01*
X143100070Y-147294297D01*
X143126744Y-147271185D01*
X143201522Y-147223127D01*
X143232975Y-147202914D01*
X143341636Y-147108760D01*
X143341639Y-147108757D01*
X143435888Y-146999987D01*
X143513620Y-146879033D01*
X143573407Y-146748117D01*
X143593962Y-146678112D01*
X143631735Y-146619336D01*
X143695290Y-146590310D01*
X143764449Y-146600253D01*
X143778035Y-146607510D01*
X143901170Y-146683461D01*
X143901181Y-146683466D01*
X144064829Y-146737693D01*
X144165834Y-146748012D01*
X144202482Y-146748012D01*
X144202482Y-145960513D01*
X144702482Y-145960513D01*
X144702482Y-146748012D01*
X144739122Y-146748012D01*
X144739136Y-146748011D01*
X144840134Y-146737693D01*
X145003782Y-146683466D01*
X145003793Y-146683461D01*
X145150516Y-146592960D01*
X145150520Y-146592957D01*
X145272425Y-146471052D01*
X145275447Y-146466154D01*
X145327395Y-146419428D01*
X145396357Y-146408205D01*
X145460439Y-146436048D01*
X145486525Y-146466151D01*
X145497591Y-146484092D01*
X145619498Y-146605999D01*
X145619502Y-146606002D01*
X145766225Y-146696503D01*
X145766236Y-146696508D01*
X145929884Y-146750735D01*
X146030889Y-146761054D01*
X146067537Y-146761054D01*
X146067537Y-145973555D01*
X145363941Y-145973555D01*
X145319525Y-145960513D01*
X144702482Y-145960513D01*
X144202482Y-145960513D01*
X144202482Y-145584513D01*
X144222167Y-145517474D01*
X144274971Y-145471719D01*
X144326482Y-145460513D01*
X145406078Y-145460513D01*
X145450494Y-145473555D01*
X146443537Y-145473555D01*
X146510576Y-145493240D01*
X146556331Y-145546044D01*
X146567537Y-145597555D01*
X146567537Y-146761054D01*
X146604177Y-146761054D01*
X146604191Y-146761053D01*
X146705189Y-146750735D01*
X146868837Y-146696508D01*
X146868848Y-146696503D01*
X147015571Y-146606002D01*
X147015575Y-146605999D01*
X147137481Y-146484093D01*
X147137484Y-146484089D01*
X147227985Y-146337366D01*
X147227988Y-146337358D01*
X147241818Y-146295623D01*
X147281590Y-146238177D01*
X147346106Y-146211353D01*
X147414882Y-146223667D01*
X147447206Y-146246944D01*
X149552525Y-148352263D01*
X149586010Y-148413586D01*
X149588165Y-148452901D01*
X149584702Y-148485859D01*
X149584702Y-148485863D01*
X149604488Y-148674119D01*
X149604489Y-148674122D01*
X149662980Y-148854140D01*
X149662983Y-148854147D01*
X149757629Y-149018079D01*
X149786952Y-149050645D01*
X149884291Y-149158751D01*
X150037427Y-149270011D01*
X150037432Y-149270014D01*
X150210354Y-149347005D01*
X150210359Y-149347007D01*
X150395516Y-149386363D01*
X150395517Y-149386363D01*
X150584806Y-149386363D01*
X150584808Y-149386363D01*
X150769965Y-149347007D01*
X150942892Y-149270014D01*
X151096033Y-149158751D01*
X151222695Y-149018079D01*
X151317341Y-148854147D01*
X151375836Y-148674119D01*
X151395622Y-148485863D01*
X151375836Y-148297607D01*
X151317341Y-148117579D01*
X151222695Y-147953647D01*
X151096033Y-147812975D01*
X151084319Y-147804464D01*
X150942896Y-147701714D01*
X150942891Y-147701711D01*
X150769969Y-147624720D01*
X150769964Y-147624718D01*
X150624163Y-147593728D01*
X150584808Y-147585363D01*
X150436463Y-147585363D01*
X150369424Y-147565678D01*
X150348782Y-147549044D01*
X149477898Y-146678160D01*
X149444413Y-146616837D01*
X149449397Y-146547145D01*
X149491269Y-146491212D01*
X149556733Y-146466795D01*
X149581116Y-146467456D01*
X149746441Y-146488342D01*
X149842672Y-146500499D01*
X149842678Y-146500499D01*
X149842682Y-146500500D01*
X149842684Y-146500500D01*
X150157316Y-146500500D01*
X150157318Y-146500500D01*
X150157321Y-146500499D01*
X150157329Y-146500499D01*
X150343593Y-146476968D01*
X150469473Y-146461066D01*
X150774225Y-146382819D01*
X150774228Y-146382818D01*
X151066757Y-146266998D01*
X151066758Y-146266997D01*
X151066756Y-146266997D01*
X151066766Y-146266994D01*
X151342484Y-146115416D01*
X151597030Y-145930478D01*
X151826390Y-145715094D01*
X152026947Y-145472663D01*
X152195537Y-145207007D01*
X152329503Y-144922315D01*
X152426731Y-144623079D01*
X152485688Y-144314015D01*
X152485689Y-144314004D01*
X152500500Y-144078594D01*
X152500500Y-140921405D01*
X152485689Y-140685995D01*
X152485688Y-140685988D01*
X152485688Y-140685985D01*
X152426731Y-140376921D01*
X152349111Y-140138035D01*
X152347117Y-140068195D01*
X152383197Y-140008362D01*
X152445898Y-139977534D01*
X152515312Y-139985499D01*
X152554724Y-140012037D01*
X161509546Y-148966858D01*
X161543031Y-149028181D01*
X161545654Y-149047316D01*
X161573972Y-149532620D01*
X161573975Y-149532737D01*
X161573979Y-149532737D01*
X161580666Y-149649217D01*
X161580870Y-149656072D01*
X161581690Y-150060243D01*
X161581690Y-150060592D01*
X161581493Y-150311760D01*
X161581311Y-150318384D01*
X161560862Y-150695092D01*
X161560829Y-150695671D01*
X161544459Y-150973236D01*
X161543918Y-150979608D01*
X161503598Y-151343064D01*
X161503506Y-151343873D01*
X161469682Y-151631527D01*
X161468810Y-151637626D01*
X161409160Y-151992046D01*
X161408982Y-151993077D01*
X161357424Y-152284379D01*
X161356252Y-152290191D01*
X161277615Y-152636966D01*
X161277325Y-152638212D01*
X161208043Y-152929751D01*
X161206600Y-152935261D01*
X161109337Y-153274460D01*
X161108911Y-153275910D01*
X161022028Y-153565537D01*
X161020343Y-153570735D01*
X160904812Y-153902061D01*
X160904226Y-153903704D01*
X160823717Y-154124552D01*
X160782263Y-154180795D01*
X160716981Y-154205697D01*
X160648600Y-154191352D01*
X160598829Y-154142315D01*
X160586560Y-154110679D01*
X160551119Y-153961147D01*
X160501583Y-153862512D01*
X160472381Y-153804366D01*
X160472379Y-153804363D01*
X160472376Y-153804359D01*
X160407134Y-153724270D01*
X160407133Y-153724269D01*
X160407125Y-153724259D01*
X159982848Y-153299984D01*
X159982840Y-153299977D01*
X159982834Y-153299972D01*
X159902748Y-153234731D01*
X159902742Y-153234727D01*
X159902741Y-153234726D01*
X159823844Y-153195103D01*
X159745956Y-153155986D01*
X159575254Y-153115528D01*
X159575249Y-153115527D01*
X159575247Y-153115527D01*
X159399805Y-153115527D01*
X159399803Y-153115527D01*
X159399797Y-153115528D01*
X159229092Y-153155987D01*
X159072310Y-153234726D01*
X159072304Y-153234730D01*
X158992215Y-153299972D01*
X158992197Y-153299988D01*
X158567936Y-153724251D01*
X158567917Y-153724272D01*
X158502676Y-153804358D01*
X158502672Y-153804364D01*
X158423931Y-153961150D01*
X158383473Y-154131852D01*
X158383472Y-154131863D01*
X158383472Y-154307298D01*
X158383473Y-154307309D01*
X158423932Y-154478014D01*
X158502671Y-154634796D01*
X158502675Y-154634802D01*
X158567719Y-154714648D01*
X158567927Y-154714903D01*
X158992204Y-155139178D01*
X158992210Y-155139183D01*
X158992217Y-155139189D01*
X159072303Y-155204430D01*
X159072305Y-155204431D01*
X159072311Y-155204436D01*
X159226514Y-155281879D01*
X159229095Y-155283175D01*
X159344930Y-155310629D01*
X159399805Y-155323635D01*
X159399808Y-155323635D01*
X159575244Y-155323635D01*
X159575247Y-155323635D01*
X159745959Y-155283174D01*
X159902741Y-155204436D01*
X159982848Y-155139180D01*
X160232206Y-154889820D01*
X160293525Y-154856338D01*
X160363217Y-154861322D01*
X160419151Y-154903193D01*
X160443568Y-154968657D01*
X160431646Y-155031219D01*
X160389668Y-155118560D01*
X160388693Y-155120542D01*
X160250952Y-155394524D01*
X160248730Y-155398741D01*
X160080737Y-155703149D01*
X160079536Y-155705275D01*
X159925712Y-155971477D01*
X159923372Y-155975360D01*
X159738863Y-156269307D01*
X159737418Y-156271557D01*
X159568088Y-156528830D01*
X159565661Y-156532381D01*
X159365145Y-156815166D01*
X159363436Y-156817517D01*
X159179200Y-157064846D01*
X159176716Y-157068069D01*
X158960817Y-157338882D01*
X158958829Y-157341312D01*
X158760372Y-157577712D01*
X158757860Y-157580612D01*
X158527186Y-157838733D01*
X158524906Y-157841216D01*
X158312957Y-158065786D01*
X158310445Y-158068370D01*
X158065647Y-158313089D01*
X158063061Y-158315601D01*
X157838483Y-158527418D01*
X157836000Y-158529697D01*
X157577770Y-158760320D01*
X157574868Y-158762831D01*
X157338405Y-158961208D01*
X157335976Y-158963195D01*
X157065089Y-159179010D01*
X157061865Y-159181493D01*
X156814456Y-159365665D01*
X156812104Y-159367373D01*
X156529296Y-159567767D01*
X156525744Y-159570192D01*
X156268415Y-159739440D01*
X156266165Y-159740886D01*
X155972118Y-159925324D01*
X155968234Y-159927663D01*
X155702004Y-160081386D01*
X155699878Y-160082585D01*
X155395422Y-160250478D01*
X155391204Y-160252699D01*
X155117144Y-160390368D01*
X155115162Y-160391342D01*
X155031170Y-160431677D01*
X154962216Y-160442954D01*
X154898112Y-160415161D01*
X154859210Y-160357123D01*
X154857862Y-160287266D01*
X154889810Y-160232217D01*
X154915024Y-160207003D01*
X155139178Y-159982848D01*
X155204436Y-159902741D01*
X155283174Y-159745959D01*
X155284377Y-159740886D01*
X155323633Y-159575254D01*
X155323635Y-159575247D01*
X155323635Y-159399805D01*
X155290806Y-159261293D01*
X155283174Y-159229092D01*
X155207591Y-159078594D01*
X155204436Y-159072311D01*
X155204434Y-159072308D01*
X155204431Y-159072304D01*
X155139189Y-158992215D01*
X155139188Y-158992214D01*
X155139180Y-158992204D01*
X154714903Y-158567929D01*
X154714895Y-158567922D01*
X154714889Y-158567917D01*
X154634803Y-158502676D01*
X154634797Y-158502672D01*
X154634796Y-158502671D01*
X154556053Y-158463125D01*
X154478011Y-158423931D01*
X154307309Y-158383473D01*
X154307304Y-158383472D01*
X154307302Y-158383472D01*
X154131860Y-158383472D01*
X154131858Y-158383472D01*
X154131852Y-158383473D01*
X153961147Y-158423932D01*
X153804365Y-158502671D01*
X153804359Y-158502675D01*
X153724270Y-158567917D01*
X153724252Y-158567933D01*
X153299991Y-158992196D01*
X153299972Y-158992217D01*
X153234731Y-159072303D01*
X153234727Y-159072309D01*
X153155986Y-159229095D01*
X153115528Y-159399797D01*
X153115527Y-159399808D01*
X153115527Y-159575243D01*
X153115528Y-159575254D01*
X153155987Y-159745959D01*
X153234726Y-159902741D01*
X153234730Y-159902747D01*
X153299972Y-159982836D01*
X153299982Y-159982848D01*
X153724259Y-160407123D01*
X153724267Y-160407129D01*
X153724272Y-160407134D01*
X153804358Y-160472375D01*
X153804361Y-160472377D01*
X153804366Y-160472381D01*
X153961148Y-160551119D01*
X153961150Y-160551120D01*
X154110776Y-160586583D01*
X154171469Y-160621197D01*
X154203812Y-160683130D01*
X154197538Y-160752717D01*
X154154639Y-160807866D01*
X154124611Y-160823754D01*
X153900154Y-160905496D01*
X153898511Y-160906081D01*
X153567171Y-161021497D01*
X153561972Y-161023181D01*
X153272193Y-161110006D01*
X153270744Y-161110430D01*
X152931665Y-161207541D01*
X152926154Y-161208984D01*
X152634523Y-161278187D01*
X152633277Y-161278476D01*
X152286492Y-161356997D01*
X152280680Y-161358167D01*
X151989519Y-161409603D01*
X151988487Y-161409781D01*
X151633862Y-161469347D01*
X151627763Y-161470216D01*
X151340201Y-161503934D01*
X151339392Y-161504026D01*
X151048625Y-161536187D01*
X150979828Y-161523992D01*
X150928545Y-161476539D01*
X150911059Y-161408892D01*
X150932921Y-161342531D01*
X150987190Y-161298524D01*
X150989284Y-161297671D01*
X151066766Y-161266994D01*
X151342484Y-161115416D01*
X151597030Y-160930478D01*
X151826390Y-160715094D01*
X152026947Y-160472663D01*
X152195537Y-160207007D01*
X152329503Y-159922315D01*
X152426731Y-159623079D01*
X152485688Y-159314015D01*
X152494182Y-159179010D01*
X152500500Y-159078594D01*
X152500500Y-156571397D01*
X152520185Y-156504358D01*
X152572989Y-156458603D01*
X152642147Y-156448659D01*
X152705703Y-156477684D01*
X152733161Y-156511658D01*
X152734538Y-156514163D01*
X152734540Y-156514165D01*
X152758557Y-156542287D01*
X152758568Y-156542298D01*
X152985527Y-156769256D01*
X153015777Y-156818618D01*
X153047672Y-156916781D01*
X153047674Y-156916785D01*
X153142320Y-157080717D01*
X153268982Y-157221389D01*
X153422118Y-157332649D01*
X153422123Y-157332652D01*
X153595047Y-157409644D01*
X153595050Y-157409645D01*
X153598310Y-157410338D01*
X153600016Y-157411258D01*
X153601232Y-157411654D01*
X153601159Y-157411876D01*
X153659794Y-157443525D01*
X153660220Y-157443949D01*
X153841406Y-157625136D01*
X153841417Y-157625147D01*
X153869541Y-157649166D01*
X153869544Y-157649168D01*
X154013565Y-157728344D01*
X154013567Y-157728344D01*
X154013568Y-157728345D01*
X154172759Y-157769219D01*
X154172762Y-157769219D01*
X154337110Y-157769219D01*
X154337113Y-157769219D01*
X154496304Y-157728345D01*
X154568316Y-157688756D01*
X154640326Y-157649169D01*
X154640327Y-157649168D01*
X154640329Y-157649167D01*
X154656141Y-157635662D01*
X154668453Y-157625147D01*
X154973496Y-157320104D01*
X154984011Y-157307792D01*
X154997516Y-157291980D01*
X155076694Y-157147955D01*
X155117568Y-156988764D01*
X155117568Y-156988763D01*
X155119508Y-156981208D01*
X155121731Y-156981778D01*
X155145035Y-156928328D01*
X155203152Y-156889545D01*
X155213448Y-156887305D01*
X155213441Y-156887275D01*
X155220997Y-156885335D01*
X155380188Y-156844461D01*
X155452200Y-156804872D01*
X155524210Y-156765285D01*
X155524211Y-156765284D01*
X155524213Y-156765283D01*
X155540025Y-156751778D01*
X155552337Y-156741263D01*
X155857380Y-156436220D01*
X155867895Y-156423908D01*
X155881400Y-156408096D01*
X155960578Y-156264071D01*
X156001452Y-156104880D01*
X156001452Y-156104879D01*
X156003392Y-156097324D01*
X156005471Y-156097857D01*
X156028984Y-156043929D01*
X156087101Y-156005146D01*
X156097271Y-156002932D01*
X156097261Y-156002892D01*
X156263879Y-155960111D01*
X156263889Y-155960108D01*
X156407797Y-155880993D01*
X156409699Y-155879368D01*
X155633794Y-155103464D01*
X154504335Y-153974004D01*
X154504335Y-153974005D01*
X154502711Y-153975906D01*
X154423596Y-154119815D01*
X154423593Y-154119823D01*
X154398406Y-154217923D01*
X154362668Y-154277961D01*
X154300144Y-154309146D01*
X154230686Y-154301578D01*
X154190621Y-154274766D01*
X152877946Y-152962091D01*
X152867251Y-152949896D01*
X152851793Y-152929751D01*
X152849437Y-152926680D01*
X152731307Y-152836036D01*
X152731305Y-152836035D01*
X152593742Y-152779054D01*
X152446118Y-152759619D01*
X152446116Y-152759619D01*
X152417102Y-152763439D01*
X152400916Y-152764500D01*
X148715201Y-152764500D01*
X148699015Y-152763439D01*
X148670001Y-152759619D01*
X148669999Y-152759619D01*
X148522374Y-152779055D01*
X148384809Y-152836035D01*
X148266682Y-152926677D01*
X148248859Y-152949903D01*
X148238168Y-152962092D01*
X147137080Y-154063181D01*
X147075757Y-154096666D01*
X147049399Y-154099500D01*
X146905354Y-154099500D01*
X146900311Y-154100572D01*
X146720197Y-154138855D01*
X146720192Y-154138857D01*
X146547270Y-154215848D01*
X146547265Y-154215851D01*
X146394129Y-154327111D01*
X146267466Y-154467785D01*
X146172821Y-154631715D01*
X146172818Y-154631722D01*
X146114327Y-154811740D01*
X146114326Y-154811744D01*
X146094540Y-155000000D01*
X146114326Y-155188256D01*
X146114327Y-155188259D01*
X146172818Y-155368277D01*
X146172821Y-155368284D01*
X146267467Y-155532216D01*
X146394129Y-155672888D01*
X146547265Y-155784148D01*
X146547270Y-155784151D01*
X146720192Y-155861142D01*
X146720197Y-155861144D01*
X146905354Y-155900500D01*
X146905355Y-155900500D01*
X147094644Y-155900500D01*
X147094646Y-155900500D01*
X147279803Y-155861144D01*
X147325065Y-155840991D01*
X147394312Y-155831706D01*
X147457589Y-155861334D01*
X147494804Y-155920468D01*
X147499500Y-155954271D01*
X147499500Y-159078594D01*
X147514310Y-159314004D01*
X147514311Y-159314011D01*
X147573270Y-159623083D01*
X147652533Y-159867030D01*
X147654528Y-159936871D01*
X147618447Y-159996704D01*
X147555746Y-160027532D01*
X147486332Y-160019567D01*
X147446921Y-159993029D01*
X143725449Y-156271557D01*
X138490761Y-151036868D01*
X138457276Y-150975545D01*
X138454656Y-150956460D01*
X138426082Y-150469473D01*
X138419444Y-150354492D01*
X138419241Y-150347723D01*
X138418289Y-149943263D01*
X138418405Y-149691939D01*
X138418582Y-149685420D01*
X138438925Y-149308395D01*
X138455230Y-149030437D01*
X138455760Y-149024166D01*
X138496034Y-148660055D01*
X138529788Y-148372189D01*
X138530645Y-148366175D01*
X138590254Y-148011294D01*
X138590346Y-148010760D01*
X138641839Y-147719275D01*
X138642993Y-147713543D01*
X138721591Y-147366421D01*
X138721750Y-147365734D01*
X138791026Y-147073794D01*
X138792440Y-147068396D01*
X138889613Y-146729097D01*
X138889992Y-146727805D01*
X138976842Y-146437948D01*
X138978470Y-146432919D01*
X139093979Y-146101311D01*
X139094445Y-146100002D01*
X139198658Y-145813843D01*
X139200499Y-145809098D01*
X139333950Y-145485771D01*
X139334564Y-145484316D01*
X139455770Y-145203434D01*
X139457813Y-145198953D01*
X139608745Y-144884654D01*
X139609543Y-144883030D01*
X139747350Y-144608696D01*
X139749469Y-144604672D01*
X139917455Y-144300044D01*
X139918530Y-144298139D01*
X140072396Y-144031661D01*
X140074635Y-144027944D01*
X140259190Y-143733710D01*
X140260476Y-143731710D01*
X140429853Y-143474184D01*
X140432183Y-143470770D01*
X140632733Y-143187744D01*
X140634227Y-143185687D01*
X140818554Y-142938068D01*
X140820936Y-142934975D01*
X141036852Y-142663961D01*
X141038790Y-142661593D01*
X141237234Y-142425052D01*
X141239585Y-142422334D01*
X141470332Y-142163963D01*
X141472512Y-142161588D01*
X141684526Y-141936803D01*
X141686809Y-141934453D01*
X141931705Y-141689477D01*
X141934137Y-141687113D01*
X142158858Y-141475021D01*
X142161185Y-141472885D01*
X142419463Y-141242071D01*
X142422209Y-141239692D01*
X142658803Y-141041073D01*
X142660997Y-141039278D01*
X142931997Y-140823229D01*
X142935085Y-140820848D01*
X143182561Y-140636503D01*
X143184750Y-140634912D01*
X143467687Y-140434288D01*
X143471059Y-140431984D01*
X143728593Y-140262481D01*
X143730589Y-140261200D01*
X144024688Y-140076595D01*
X144028471Y-140074315D01*
X144294902Y-139920360D01*
X144296666Y-139919363D01*
X144601317Y-139751235D01*
X144605414Y-139749077D01*
X144879571Y-139611248D01*
X144881327Y-139610384D01*
X145195556Y-139459360D01*
X145200014Y-139457327D01*
X145480932Y-139335997D01*
X145482325Y-139335409D01*
X145805552Y-139201877D01*
X145810340Y-139200016D01*
X146096440Y-139095719D01*
X146097783Y-139095240D01*
X146429319Y-138979636D01*
X146434418Y-138977983D01*
X146724212Y-138891050D01*
X146725378Y-138890707D01*
X147064751Y-138793394D01*
X147070233Y-138791958D01*
X147362140Y-138722590D01*
X147362707Y-138722458D01*
X147709860Y-138643735D01*
X147715567Y-138642584D01*
X148007171Y-138590972D01*
X148007622Y-138590894D01*
X148362419Y-138531181D01*
X148368427Y-138530322D01*
X148656397Y-138496460D01*
X148951601Y-138463712D01*
X149020398Y-138475885D01*
G37*
%TD.AperFunction*%
%TD*%
M02*
