%TF.GenerationSoftware,KiCad,Pcbnew,7.0.10*%
%TF.CreationDate,2024-01-07T23:47:08-08:00*%
%TF.ProjectId,AS5048B,41533530-3438-4422-9e6b-696361645f70,rev?*%
%TF.SameCoordinates,Original*%
%TF.FileFunction,Legend,Bot*%
%TF.FilePolarity,Positive*%
%FSLAX46Y46*%
G04 Gerber Fmt 4.6, Leading zero omitted, Abs format (unit mm)*
G04 Created by KiCad (PCBNEW 7.0.10) date 2024-01-07 23:47:08*
%MOMM*%
%LPD*%
G01*
G04 APERTURE LIST*
%ADD10C,0.125000*%
%ADD11C,0.150000*%
%ADD12C,0.120000*%
G04 APERTURE END LIST*
D10*
X140827547Y-146885630D02*
X140827547Y-145885630D01*
X140506118Y-145980868D02*
X140470404Y-145933249D01*
X140470404Y-145933249D02*
X140398976Y-145885630D01*
X140398976Y-145885630D02*
X140220404Y-145885630D01*
X140220404Y-145885630D02*
X140148976Y-145933249D01*
X140148976Y-145933249D02*
X140113261Y-145980868D01*
X140113261Y-145980868D02*
X140077547Y-146076106D01*
X140077547Y-146076106D02*
X140077547Y-146171344D01*
X140077547Y-146171344D02*
X140113261Y-146314201D01*
X140113261Y-146314201D02*
X140541833Y-146885630D01*
X140541833Y-146885630D02*
X140077547Y-146885630D01*
X139327547Y-146790391D02*
X139363261Y-146838011D01*
X139363261Y-146838011D02*
X139470404Y-146885630D01*
X139470404Y-146885630D02*
X139541832Y-146885630D01*
X139541832Y-146885630D02*
X139648975Y-146838011D01*
X139648975Y-146838011D02*
X139720404Y-146742772D01*
X139720404Y-146742772D02*
X139756118Y-146647534D01*
X139756118Y-146647534D02*
X139791832Y-146457058D01*
X139791832Y-146457058D02*
X139791832Y-146314201D01*
X139791832Y-146314201D02*
X139756118Y-146123725D01*
X139756118Y-146123725D02*
X139720404Y-146028487D01*
X139720404Y-146028487D02*
X139648975Y-145933249D01*
X139648975Y-145933249D02*
X139541832Y-145885630D01*
X139541832Y-145885630D02*
X139470404Y-145885630D01*
X139470404Y-145885630D02*
X139363261Y-145933249D01*
X139363261Y-145933249D02*
X139327547Y-145980868D01*
D11*
X144789528Y-142076166D02*
X144837148Y-142028547D01*
X144837148Y-142028547D02*
X144884767Y-141885690D01*
X144884767Y-141885690D02*
X144884767Y-141790452D01*
X144884767Y-141790452D02*
X144837148Y-141647595D01*
X144837148Y-141647595D02*
X144741909Y-141552357D01*
X144741909Y-141552357D02*
X144646671Y-141504738D01*
X144646671Y-141504738D02*
X144456195Y-141457119D01*
X144456195Y-141457119D02*
X144313338Y-141457119D01*
X144313338Y-141457119D02*
X144122862Y-141504738D01*
X144122862Y-141504738D02*
X144027624Y-141552357D01*
X144027624Y-141552357D02*
X143932386Y-141647595D01*
X143932386Y-141647595D02*
X143884767Y-141790452D01*
X143884767Y-141790452D02*
X143884767Y-141885690D01*
X143884767Y-141885690D02*
X143932386Y-142028547D01*
X143932386Y-142028547D02*
X143980005Y-142076166D01*
X144884767Y-143028547D02*
X144884767Y-142457119D01*
X144884767Y-142742833D02*
X143884767Y-142742833D01*
X143884767Y-142742833D02*
X144027624Y-142647595D01*
X144027624Y-142647595D02*
X144122862Y-142552357D01*
X144122862Y-142552357D02*
X144170481Y-142457119D01*
X146685078Y-142007469D02*
X146732698Y-141959850D01*
X146732698Y-141959850D02*
X146780317Y-141816993D01*
X146780317Y-141816993D02*
X146780317Y-141721755D01*
X146780317Y-141721755D02*
X146732698Y-141578898D01*
X146732698Y-141578898D02*
X146637459Y-141483660D01*
X146637459Y-141483660D02*
X146542221Y-141436041D01*
X146542221Y-141436041D02*
X146351745Y-141388422D01*
X146351745Y-141388422D02*
X146208888Y-141388422D01*
X146208888Y-141388422D02*
X146018412Y-141436041D01*
X146018412Y-141436041D02*
X145923174Y-141483660D01*
X145923174Y-141483660D02*
X145827936Y-141578898D01*
X145827936Y-141578898D02*
X145780317Y-141721755D01*
X145780317Y-141721755D02*
X145780317Y-141816993D01*
X145780317Y-141816993D02*
X145827936Y-141959850D01*
X145827936Y-141959850D02*
X145875555Y-142007469D01*
X145875555Y-142388422D02*
X145827936Y-142436041D01*
X145827936Y-142436041D02*
X145780317Y-142531279D01*
X145780317Y-142531279D02*
X145780317Y-142769374D01*
X145780317Y-142769374D02*
X145827936Y-142864612D01*
X145827936Y-142864612D02*
X145875555Y-142912231D01*
X145875555Y-142912231D02*
X145970793Y-142959850D01*
X145970793Y-142959850D02*
X146066031Y-142959850D01*
X146066031Y-142959850D02*
X146208888Y-142912231D01*
X146208888Y-142912231D02*
X146780317Y-142340803D01*
X146780317Y-142340803D02*
X146780317Y-142959850D01*
D12*
%TO.C,C1*%
X143942482Y-144994280D02*
X143942482Y-144701746D01*
X144962482Y-144994280D02*
X144962482Y-144701746D01*
%TO.C,C2*%
X146827537Y-144714788D02*
X146827537Y-145007322D01*
X145807537Y-144714788D02*
X145807537Y-145007322D01*
%TO.C,JP1*%
X142678749Y-143045817D02*
X142078749Y-143045817D01*
X143878749Y-143595817D02*
X143878749Y-144195817D01*
X141378749Y-143695817D02*
X141378749Y-146495817D01*
X143578749Y-143895817D02*
X143878749Y-143595817D01*
X143578749Y-143895817D02*
X143878749Y-144195817D01*
X143378749Y-146495817D02*
X143378749Y-143695817D01*
X142078749Y-147145817D02*
X142678749Y-147145817D01*
X143378749Y-143745817D02*
G75*
G03*
X142678749Y-143045817I-699999J1D01*
G01*
X142078749Y-143045817D02*
G75*
G03*
X141378749Y-143745817I-1J-699999D01*
G01*
X142678749Y-147145817D02*
G75*
G03*
X143378749Y-146445817I0J700000D01*
G01*
X141378749Y-146445817D02*
G75*
G03*
X142078749Y-147145817I700000J0D01*
G01*
%TO.C,Je*%
X159310749Y-153321555D02*
X158285445Y-152296250D01*
X158285445Y-152296250D02*
X157012652Y-153569042D01*
X160406765Y-156213622D02*
X156213622Y-160406765D01*
X157012652Y-153569042D02*
X156312617Y-152869007D01*
X153321555Y-159310749D02*
X152296250Y-158285445D01*
X152296250Y-158285445D02*
X153569042Y-157012652D01*
%TD*%
M02*
