%TF.GenerationSoftware,KiCad,Pcbnew,7.0.10*%
%TF.CreationDate,2024-01-07T23:47:08-08:00*%
%TF.ProjectId,AS5048B,41533530-3438-4422-9e6b-696361645f70,rev?*%
%TF.SameCoordinates,Original*%
%TF.FileFunction,Copper,L1,Top*%
%TF.FilePolarity,Positive*%
%FSLAX46Y46*%
G04 Gerber Fmt 4.6, Leading zero omitted, Abs format (unit mm)*
G04 Created by KiCad (PCBNEW 7.0.10) date 2024-01-07 23:47:08*
%MOMM*%
%LPD*%
G01*
G04 APERTURE LIST*
%TA.AperFunction,ComponentPad*%
%ADD10O,7.000000X4.000000*%
%TD*%
%TA.AperFunction,ComponentPad*%
%ADD11O,4.000000X7.000000*%
%TD*%
%TA.AperFunction,SMDPad,CuDef*%
%ADD12R,0.254000X1.308100*%
%TD*%
%TA.AperFunction,ViaPad*%
%ADD13C,0.800000*%
%TD*%
%TA.AperFunction,Conductor*%
%ADD14C,0.130000*%
%TD*%
%TA.AperFunction,Conductor*%
%ADD15C,0.250000*%
%TD*%
G04 APERTURE END LIST*
D10*
%TO.P,REF\u002A\u002A,1*%
%TO.N,N/C*%
X143000000Y-150000000D03*
D11*
X150000000Y-142500000D03*
X150000000Y-157500000D03*
D10*
X157000000Y-150000000D03*
%TD*%
D12*
%TO.P,Q1,1,SDA*%
%TO.N,/I2C*%
X148049999Y-152901950D03*
%TO.P,Q1,2,SCL*%
%TO.N,Net-(J1-Pin_3)*%
X148700000Y-152901950D03*
%TO.P,Q1,3,A2*%
%TO.N,GND*%
X149350001Y-152901950D03*
%TO.P,Q1,4,A1*%
X150000000Y-152901950D03*
%TO.P,Q1,5,TEST*%
X150649999Y-152901950D03*
%TO.P,Q1,6,TEST*%
%TO.N,unconnected-(Q1-TEST-Pad6)*%
X151300000Y-152901950D03*
%TO.P,Q1,7,TEST*%
%TO.N,unconnected-(Q1-TEST-Pad7)*%
X151949999Y-152901950D03*
%TO.P,Q1,8,TEST*%
%TO.N,unconnected-(Q1-TEST-Pad8)*%
X151950001Y-147098050D03*
%TO.P,Q1,9,TEST*%
%TO.N,unconnected-(Q1-TEST-Pad9)*%
X151300000Y-147098050D03*
%TO.P,Q1,10,TEST*%
%TO.N,unconnected-(Q1-TEST-Pad10)*%
X150650001Y-147098050D03*
%TO.P,Q1,11,VDD5V*%
%TO.N,+5V*%
X150000000Y-147098050D03*
%TO.P,Q1,12,VDD3V*%
%TO.N,Net-(Q1-VDD3V)*%
X149350001Y-147098050D03*
%TO.P,Q1,13,GND*%
%TO.N,GND*%
X148700000Y-147098050D03*
%TO.P,Q1,14,PWM*%
%TO.N,/PWM*%
X148050001Y-147098050D03*
%TD*%
D13*
%TO.N,Net-(J1-Pin_3)*%
X147000000Y-155000000D03*
%TO.N,GND*%
X145000000Y-155000000D03*
X143000000Y-142000000D03*
X157000000Y-157000000D03*
X155000000Y-145000000D03*
X148000000Y-151000000D03*
X150000000Y-150000000D03*
%TO.N,+5V*%
X150490162Y-148485863D03*
X156522563Y-153857306D03*
%TO.N,Net-(Q1-VDD3V)*%
X144481140Y-144029999D03*
%TO.N,Net-(J1-Pin_4)*%
X142378749Y-145095817D03*
X153874853Y-156548501D03*
%TO.N,/I2C*%
X142390521Y-146393094D03*
%TO.N,/PWM*%
X142390521Y-143839087D03*
%TD*%
D14*
%TO.N,Net-(J1-Pin_3)*%
X148700000Y-152901950D02*
X148700000Y-154096806D01*
X148700000Y-154096806D02*
X147796806Y-155000000D01*
X147796806Y-155000000D02*
X147000000Y-155000000D01*
D15*
%TO.N,GND*%
X148700000Y-147098050D02*
X148700000Y-148300000D01*
D14*
X148000000Y-151000000D02*
X149350001Y-152350001D01*
X149350001Y-152350001D02*
X149350001Y-152901950D01*
X149350001Y-152901950D02*
X150649999Y-152901950D01*
%TO.N,+5V*%
X155709924Y-153857306D02*
X154926309Y-153073691D01*
X150000000Y-148147381D02*
X150000000Y-147098050D01*
X154926309Y-153073691D02*
X150000000Y-148147381D01*
X156522563Y-153857306D02*
X155709924Y-153857306D01*
%TO.N,Net-(Q1-VDD3V)*%
X147580056Y-144006350D02*
X146573706Y-143000000D01*
X147580056Y-144801055D02*
X147580056Y-144006350D01*
X146573706Y-143000000D02*
X146000000Y-143000000D01*
X149350001Y-146571000D02*
X147580056Y-144801055D01*
X145511139Y-143000000D02*
X146000000Y-143000000D01*
X149350001Y-147098050D02*
X149350001Y-146571000D01*
X144481140Y-144029999D02*
X145511139Y-143000000D01*
%TO.N,Net-(J1-Pin_4)*%
X153874853Y-156548501D02*
X153874853Y-156125147D01*
X154000000Y-153640901D02*
X154000000Y-156000000D01*
X152341999Y-151982900D02*
X154000000Y-153640901D01*
X144426288Y-146256404D02*
X150152784Y-151982900D01*
X142378749Y-145095817D02*
X143265701Y-145095817D01*
X150152784Y-151982900D02*
X152341999Y-151982900D01*
X143265701Y-145095817D02*
X144426288Y-146256404D01*
X153874853Y-156125147D02*
X154000000Y-156000000D01*
%TO.N,/I2C*%
X144096288Y-146393094D02*
X142390521Y-146393094D01*
X146765000Y-149061806D02*
X144096288Y-146393094D01*
X148049999Y-152901950D02*
X147098050Y-152901950D01*
X146765000Y-152568900D02*
X146765000Y-149061806D01*
X147098050Y-152901950D02*
X146765000Y-152568900D01*
%TO.N,/PWM*%
X147000000Y-147000000D02*
X147951951Y-147000000D01*
X143246433Y-144694999D02*
X142390521Y-143839087D01*
X148050001Y-147098050D02*
X147982092Y-147165959D01*
X147000000Y-147000000D02*
X144694999Y-144694999D01*
X147951951Y-147000000D02*
X148050001Y-147098050D01*
X144694999Y-144694999D02*
X143246433Y-144694999D01*
%TD*%
%TA.AperFunction,Conductor*%
%TO.N,GND*%
G36*
X152515312Y-139985499D02*
G01*
X152554724Y-140012037D01*
X161509546Y-148966858D01*
X161543031Y-149028181D01*
X161545654Y-149047316D01*
X161573972Y-149532620D01*
X161573975Y-149532737D01*
X161573979Y-149532737D01*
X161580666Y-149649217D01*
X161580870Y-149656072D01*
X161581690Y-150060243D01*
X161581690Y-150060592D01*
X161581493Y-150311760D01*
X161581311Y-150318384D01*
X161560862Y-150695092D01*
X161560829Y-150695671D01*
X161544459Y-150973236D01*
X161543918Y-150979608D01*
X161503598Y-151343064D01*
X161503506Y-151343873D01*
X161469682Y-151631527D01*
X161468810Y-151637626D01*
X161409160Y-151992046D01*
X161408982Y-151993077D01*
X161357424Y-152284379D01*
X161356252Y-152290191D01*
X161277615Y-152636966D01*
X161277325Y-152638212D01*
X161208043Y-152929751D01*
X161206600Y-152935261D01*
X161109337Y-153274460D01*
X161108911Y-153275910D01*
X161022028Y-153565537D01*
X161020343Y-153570735D01*
X160904812Y-153902061D01*
X160904226Y-153903704D01*
X160799998Y-154189615D01*
X160798103Y-154194491D01*
X160664673Y-154517473D01*
X160663904Y-154519294D01*
X160542695Y-154799930D01*
X160540621Y-154804478D01*
X160389668Y-155118560D01*
X160388693Y-155120542D01*
X160250952Y-155394524D01*
X160248730Y-155398741D01*
X160080737Y-155703149D01*
X160079536Y-155705275D01*
X159925712Y-155971477D01*
X159923372Y-155975360D01*
X159738863Y-156269307D01*
X159737418Y-156271557D01*
X159568088Y-156528830D01*
X159565661Y-156532381D01*
X159365145Y-156815166D01*
X159363436Y-156817517D01*
X159179200Y-157064846D01*
X159176716Y-157068069D01*
X158960817Y-157338882D01*
X158958829Y-157341312D01*
X158760372Y-157577712D01*
X158757860Y-157580612D01*
X158527186Y-157838733D01*
X158524906Y-157841216D01*
X158312957Y-158065786D01*
X158310445Y-158068370D01*
X158065647Y-158313089D01*
X158063061Y-158315601D01*
X157838483Y-158527418D01*
X157836000Y-158529697D01*
X157577770Y-158760320D01*
X157574868Y-158762831D01*
X157338405Y-158961208D01*
X157335976Y-158963195D01*
X157065089Y-159179010D01*
X157061865Y-159181493D01*
X156814456Y-159365665D01*
X156812104Y-159367373D01*
X156529296Y-159567767D01*
X156525744Y-159570192D01*
X156268415Y-159739440D01*
X156266165Y-159740886D01*
X155972118Y-159925324D01*
X155968234Y-159927663D01*
X155702004Y-160081386D01*
X155699878Y-160082585D01*
X155395422Y-160250478D01*
X155391204Y-160252699D01*
X155117144Y-160390368D01*
X155115161Y-160391342D01*
X154801079Y-160542169D01*
X154796531Y-160544242D01*
X154515841Y-160665366D01*
X154514020Y-160666135D01*
X154190974Y-160799469D01*
X154186097Y-160801362D01*
X153900154Y-160905496D01*
X153898511Y-160906081D01*
X153567171Y-161021497D01*
X153561972Y-161023181D01*
X153272193Y-161110006D01*
X153270744Y-161110430D01*
X152931665Y-161207541D01*
X152926154Y-161208984D01*
X152634523Y-161278187D01*
X152633277Y-161278476D01*
X152286492Y-161356997D01*
X152280680Y-161358167D01*
X151989519Y-161409603D01*
X151988487Y-161409781D01*
X151633862Y-161469347D01*
X151627763Y-161470216D01*
X151340201Y-161503934D01*
X151339392Y-161504026D01*
X151048625Y-161536187D01*
X150979828Y-161523992D01*
X150928545Y-161476539D01*
X150911059Y-161408892D01*
X150932921Y-161342531D01*
X150987190Y-161298524D01*
X150989284Y-161297671D01*
X151066766Y-161266994D01*
X151342484Y-161115416D01*
X151597030Y-160930478D01*
X151826390Y-160715094D01*
X152026947Y-160472663D01*
X152195537Y-160207007D01*
X152329503Y-159922315D01*
X152426731Y-159623079D01*
X152485688Y-159314015D01*
X152494182Y-159179010D01*
X152500500Y-159078594D01*
X152500500Y-155921405D01*
X152485689Y-155685995D01*
X152485688Y-155685988D01*
X152485688Y-155685985D01*
X152426731Y-155376921D01*
X152329503Y-155077685D01*
X152195537Y-154792993D01*
X152093187Y-154631715D01*
X152026948Y-154527338D01*
X152026945Y-154527334D01*
X151826393Y-154284909D01*
X151826390Y-154284906D01*
X151811465Y-154270890D01*
X151776071Y-154210648D01*
X151778865Y-154140834D01*
X151818960Y-154083614D01*
X151883625Y-154057154D01*
X151896337Y-154056499D01*
X152124871Y-154056499D01*
X152184482Y-154050091D01*
X152319330Y-153999796D01*
X152434545Y-153913546D01*
X152520795Y-153798331D01*
X152571090Y-153663483D01*
X152577499Y-153603873D01*
X152577498Y-153317497D01*
X152597182Y-153250460D01*
X152649986Y-153204705D01*
X152719145Y-153194761D01*
X152782700Y-153223786D01*
X152789179Y-153229818D01*
X153398181Y-153838819D01*
X153431666Y-153900142D01*
X153434500Y-153926500D01*
X153434500Y-155692176D01*
X153414815Y-155759215D01*
X153383385Y-155792494D01*
X153268982Y-155875612D01*
X153142319Y-156016286D01*
X153047674Y-156180216D01*
X153047671Y-156180223D01*
X152989180Y-156360241D01*
X152989179Y-156360245D01*
X152969393Y-156548501D01*
X152989179Y-156736757D01*
X152989180Y-156736760D01*
X153047671Y-156916778D01*
X153047674Y-156916785D01*
X153142320Y-157080717D01*
X153268982Y-157221389D01*
X153422118Y-157332649D01*
X153422123Y-157332652D01*
X153595045Y-157409643D01*
X153595050Y-157409645D01*
X153780207Y-157449001D01*
X153780208Y-157449001D01*
X153969497Y-157449001D01*
X153969499Y-157449001D01*
X154154656Y-157409645D01*
X154327583Y-157332652D01*
X154480724Y-157221389D01*
X154607386Y-157080717D01*
X154702032Y-156916785D01*
X154760527Y-156736757D01*
X154780313Y-156548501D01*
X154760527Y-156360245D01*
X154702032Y-156180217D01*
X154607386Y-156016285D01*
X154597350Y-156005139D01*
X154567120Y-155942148D01*
X154565500Y-155922167D01*
X154565500Y-153811982D01*
X154585185Y-153744943D01*
X154637989Y-153699188D01*
X154707147Y-153689244D01*
X154770703Y-153718269D01*
X154777181Y-153724301D01*
X155278094Y-154225214D01*
X155288788Y-154237408D01*
X155306604Y-154260626D01*
X155374439Y-154312677D01*
X155393251Y-154327112D01*
X155393252Y-154327113D01*
X155424732Y-154351269D01*
X155424735Y-154351271D01*
X155493516Y-154379760D01*
X155562299Y-154408251D01*
X155690487Y-154425127D01*
X155709923Y-154427687D01*
X155709924Y-154427687D01*
X155709925Y-154427687D01*
X155738939Y-154423867D01*
X155755125Y-154422806D01*
X155764791Y-154422806D01*
X155831830Y-154442491D01*
X155856940Y-154463833D01*
X155905238Y-154517473D01*
X155916692Y-154530194D01*
X155916698Y-154530199D01*
X156069828Y-154641454D01*
X156069833Y-154641457D01*
X156242755Y-154718448D01*
X156242760Y-154718450D01*
X156427917Y-154757806D01*
X156427918Y-154757806D01*
X156617207Y-154757806D01*
X156617209Y-154757806D01*
X156802366Y-154718450D01*
X156975293Y-154641457D01*
X157128434Y-154530194D01*
X157255096Y-154389522D01*
X157349742Y-154225590D01*
X157408237Y-154045562D01*
X157428023Y-153857306D01*
X157408237Y-153669050D01*
X157349742Y-153489022D01*
X157255096Y-153325090D01*
X157128434Y-153184418D01*
X157121358Y-153179277D01*
X156975297Y-153073157D01*
X156975292Y-153073154D01*
X156802370Y-152996163D01*
X156802365Y-152996161D01*
X156656564Y-152965171D01*
X156617209Y-152956806D01*
X156427917Y-152956806D01*
X156395460Y-152963704D01*
X156242760Y-152996161D01*
X156242755Y-152996163D01*
X156069833Y-153073154D01*
X156069829Y-153073157D01*
X155956081Y-153155798D01*
X155890274Y-153179277D01*
X155822221Y-153163451D01*
X155795516Y-153143160D01*
X155364537Y-152712181D01*
X155331052Y-152650858D01*
X155336036Y-152581166D01*
X155377908Y-152525233D01*
X155443372Y-152500816D01*
X155452218Y-152500500D01*
X158578594Y-152500500D01*
X158814004Y-152485689D01*
X158814007Y-152485688D01*
X158814015Y-152485688D01*
X159123079Y-152426731D01*
X159422315Y-152329503D01*
X159707007Y-152195537D01*
X159972663Y-152026947D01*
X160215094Y-151826390D01*
X160430478Y-151597030D01*
X160615416Y-151342484D01*
X160766994Y-151066766D01*
X160778832Y-151036868D01*
X160882818Y-150774228D01*
X160882819Y-150774225D01*
X160961065Y-150469476D01*
X160961066Y-150469473D01*
X160998641Y-150172035D01*
X161000499Y-150157329D01*
X161000500Y-150157316D01*
X161000500Y-149842683D01*
X161000499Y-149842670D01*
X160961067Y-149530536D01*
X160961065Y-149530523D01*
X160882819Y-149225774D01*
X160882818Y-149225771D01*
X160766998Y-148933242D01*
X160766997Y-148933241D01*
X160766996Y-148933239D01*
X160766994Y-148933234D01*
X160615416Y-148657516D01*
X160615410Y-148657509D01*
X160615408Y-148657504D01*
X160430484Y-148402978D01*
X160430476Y-148402968D01*
X160251549Y-148212430D01*
X160215094Y-148173610D01*
X160215092Y-148173608D01*
X160215090Y-148173606D01*
X159972665Y-147973054D01*
X159972661Y-147973051D01*
X159707009Y-147804464D01*
X159707003Y-147804461D01*
X159422321Y-147670499D01*
X159422316Y-147670497D01*
X159123083Y-147573270D01*
X159123080Y-147573269D01*
X159123079Y-147573269D01*
X158968547Y-147543790D01*
X158814011Y-147514311D01*
X158814004Y-147514310D01*
X158578594Y-147499500D01*
X158578583Y-147499500D01*
X155421417Y-147499500D01*
X155421406Y-147499500D01*
X155185995Y-147514310D01*
X155185988Y-147514311D01*
X154917648Y-147565500D01*
X154892061Y-147570381D01*
X154876916Y-147573270D01*
X154577683Y-147670497D01*
X154577678Y-147670499D01*
X154292996Y-147804461D01*
X154292990Y-147804464D01*
X154027338Y-147973051D01*
X154027334Y-147973054D01*
X153784909Y-148173606D01*
X153784907Y-148173608D01*
X153569523Y-148402968D01*
X153569515Y-148402978D01*
X153384591Y-148657504D01*
X153384584Y-148657516D01*
X153233002Y-148933241D01*
X153233001Y-148933242D01*
X153117181Y-149225771D01*
X153117180Y-149225774D01*
X153038934Y-149530523D01*
X153038932Y-149530536D01*
X152999500Y-149842670D01*
X152999500Y-150047782D01*
X152979815Y-150114821D01*
X152927011Y-150160576D01*
X152857853Y-150170520D01*
X152794297Y-150141495D01*
X152787819Y-150135463D01*
X151412963Y-148760607D01*
X151379478Y-148699284D01*
X151377323Y-148659968D01*
X151395622Y-148485863D01*
X151385195Y-148386654D01*
X151397763Y-148317930D01*
X151445495Y-148266905D01*
X151495261Y-148250407D01*
X151534483Y-148246191D01*
X151556143Y-148238112D01*
X151581666Y-148228593D01*
X151651357Y-148223608D01*
X151668327Y-148228590D01*
X151706761Y-148242925D01*
X151715512Y-148246189D01*
X151715518Y-148246191D01*
X151775128Y-148252600D01*
X152124873Y-148252599D01*
X152184484Y-148246191D01*
X152319332Y-148195896D01*
X152434547Y-148109646D01*
X152520797Y-147994431D01*
X152571092Y-147859583D01*
X152577501Y-147799973D01*
X152577500Y-146396128D01*
X152571092Y-146336517D01*
X152521977Y-146204834D01*
X152520798Y-146201671D01*
X152520794Y-146201664D01*
X152434548Y-146086455D01*
X152434545Y-146086452D01*
X152319336Y-146000206D01*
X152319329Y-146000202D01*
X152184487Y-145949910D01*
X152184486Y-145949909D01*
X152184484Y-145949909D01*
X152124874Y-145943500D01*
X152124865Y-145943500D01*
X151896349Y-145943500D01*
X151829310Y-145923815D01*
X151783555Y-145871011D01*
X151773611Y-145801853D01*
X151802636Y-145738297D01*
X151811451Y-145729122D01*
X151826390Y-145715094D01*
X152026947Y-145472663D01*
X152195537Y-145207007D01*
X152329503Y-144922315D01*
X152426731Y-144623079D01*
X152485688Y-144314015D01*
X152485689Y-144314004D01*
X152500500Y-144078594D01*
X152500500Y-140921405D01*
X152485689Y-140685995D01*
X152485688Y-140685988D01*
X152485688Y-140685985D01*
X152426731Y-140376921D01*
X152349111Y-140138035D01*
X152347117Y-140068195D01*
X152383197Y-140008362D01*
X152445898Y-139977534D01*
X152515312Y-139985499D01*
G37*
%TD.AperFunction*%
%TA.AperFunction,Conductor*%
G36*
X149020398Y-138475885D02*
G01*
X149071696Y-138523322D01*
X149089204Y-138590963D01*
X149067364Y-138657331D01*
X149013109Y-138701356D01*
X149010917Y-138702248D01*
X148933239Y-138733003D01*
X148657516Y-138884584D01*
X148657504Y-138884591D01*
X148402978Y-139069515D01*
X148402968Y-139069523D01*
X148173608Y-139284907D01*
X148173606Y-139284909D01*
X147973054Y-139527334D01*
X147973051Y-139527338D01*
X147804464Y-139792990D01*
X147804461Y-139792996D01*
X147670499Y-140077678D01*
X147670497Y-140077683D01*
X147573270Y-140376916D01*
X147514311Y-140685988D01*
X147514310Y-140685995D01*
X147499500Y-140921405D01*
X147499500Y-142826694D01*
X147479815Y-142893733D01*
X147427011Y-142939488D01*
X147357853Y-142949432D01*
X147294297Y-142920407D01*
X147287819Y-142914375D01*
X147005535Y-142632091D01*
X146994840Y-142619896D01*
X146977026Y-142596680D01*
X146858896Y-142506036D01*
X146858894Y-142506035D01*
X146721331Y-142449054D01*
X146573707Y-142429619D01*
X146573705Y-142429619D01*
X146544691Y-142433439D01*
X146528505Y-142434500D01*
X145556340Y-142434500D01*
X145540154Y-142433439D01*
X145511140Y-142429619D01*
X145511138Y-142429619D01*
X145363513Y-142449055D01*
X145225948Y-142506035D01*
X145107821Y-142596677D01*
X145089998Y-142619903D01*
X145079307Y-142632092D01*
X144618220Y-143093180D01*
X144556897Y-143126665D01*
X144530539Y-143129499D01*
X144386494Y-143129499D01*
X144381451Y-143130571D01*
X144201337Y-143168854D01*
X144201332Y-143168856D01*
X144028410Y-143245847D01*
X144028405Y-143245850D01*
X143875269Y-143357110D01*
X143748606Y-143497784D01*
X143653961Y-143661714D01*
X143653958Y-143661721D01*
X143595467Y-143841739D01*
X143595466Y-143841743D01*
X143584355Y-143947462D01*
X143557770Y-144012076D01*
X143500473Y-144052061D01*
X143430654Y-144054721D01*
X143373353Y-144022181D01*
X143327748Y-143976576D01*
X143294263Y-143915253D01*
X143292108Y-143875933D01*
X143295981Y-143839087D01*
X143276195Y-143650831D01*
X143217700Y-143470803D01*
X143123054Y-143306871D01*
X142996392Y-143166199D01*
X142996391Y-143166198D01*
X142843255Y-143054938D01*
X142843250Y-143054935D01*
X142670328Y-142977944D01*
X142670323Y-142977942D01*
X142524522Y-142946952D01*
X142485167Y-142938587D01*
X142295875Y-142938587D01*
X142263418Y-142945485D01*
X142110718Y-142977942D01*
X142110713Y-142977944D01*
X141937791Y-143054935D01*
X141937786Y-143054938D01*
X141784650Y-143166198D01*
X141657987Y-143306872D01*
X141563342Y-143470802D01*
X141563339Y-143470809D01*
X141520772Y-143601819D01*
X141504847Y-143650831D01*
X141485061Y-143839087D01*
X141504847Y-144027343D01*
X141505710Y-144029998D01*
X141563339Y-144207364D01*
X141563342Y-144207371D01*
X141657987Y-144371302D01*
X141663965Y-144377941D01*
X141694195Y-144440932D01*
X141685571Y-144510268D01*
X141663969Y-144543883D01*
X141646217Y-144563599D01*
X141646213Y-144563604D01*
X141551570Y-144727532D01*
X141551567Y-144727539D01*
X141493076Y-144907557D01*
X141493075Y-144907561D01*
X141473289Y-145095817D01*
X141493075Y-145284073D01*
X141493076Y-145284076D01*
X141551567Y-145464094D01*
X141551570Y-145464101D01*
X141646215Y-145628032D01*
X141682220Y-145668020D01*
X141712450Y-145731012D01*
X141703824Y-145800347D01*
X141682221Y-145833963D01*
X141657991Y-145860872D01*
X141657986Y-145860879D01*
X141563342Y-146024809D01*
X141563339Y-146024816D01*
X141505876Y-146201671D01*
X141504847Y-146204838D01*
X141485061Y-146393094D01*
X141504847Y-146581350D01*
X141504848Y-146581353D01*
X141563339Y-146761371D01*
X141563342Y-146761378D01*
X141657988Y-146925310D01*
X141705682Y-146978279D01*
X141784650Y-147065982D01*
X141937786Y-147177242D01*
X141937791Y-147177245D01*
X142110713Y-147254236D01*
X142110714Y-147254236D01*
X142110718Y-147254238D01*
X142110721Y-147254238D01*
X142116895Y-147256245D01*
X142116516Y-147257411D01*
X142172068Y-147287403D01*
X142205844Y-147348566D01*
X142201190Y-147418281D01*
X142159585Y-147474413D01*
X142094238Y-147499141D01*
X142084804Y-147499500D01*
X141421406Y-147499500D01*
X141185995Y-147514310D01*
X141185988Y-147514311D01*
X140917648Y-147565500D01*
X140892061Y-147570381D01*
X140876916Y-147573270D01*
X140577683Y-147670497D01*
X140577678Y-147670499D01*
X140292996Y-147804461D01*
X140292990Y-147804464D01*
X140027338Y-147973051D01*
X140027334Y-147973054D01*
X139784909Y-148173606D01*
X139784907Y-148173608D01*
X139569523Y-148402968D01*
X139569515Y-148402978D01*
X139384591Y-148657504D01*
X139384584Y-148657516D01*
X139233002Y-148933241D01*
X139233001Y-148933242D01*
X139117181Y-149225771D01*
X139117180Y-149225774D01*
X139038934Y-149530523D01*
X139038932Y-149530536D01*
X138999500Y-149842670D01*
X138999500Y-150157329D01*
X139038932Y-150469463D01*
X139038934Y-150469476D01*
X139117180Y-150774225D01*
X139117181Y-150774228D01*
X139233001Y-151066757D01*
X139233002Y-151066758D01*
X139233004Y-151066763D01*
X139233006Y-151066766D01*
X139384584Y-151342484D01*
X139384586Y-151342488D01*
X139384591Y-151342495D01*
X139569515Y-151597021D01*
X139569522Y-151597030D01*
X139710433Y-151747084D01*
X139784907Y-151826391D01*
X139784909Y-151826393D01*
X140027334Y-152026945D01*
X140027338Y-152026948D01*
X140237648Y-152160414D01*
X140292993Y-152195537D01*
X140394930Y-152243505D01*
X140577678Y-152329500D01*
X140577682Y-152329501D01*
X140577685Y-152329503D01*
X140876921Y-152426731D01*
X141185985Y-152485688D01*
X141185990Y-152485688D01*
X141185995Y-152485689D01*
X141421406Y-152500500D01*
X141421417Y-152500500D01*
X144578594Y-152500500D01*
X144814004Y-152485689D01*
X144814007Y-152485688D01*
X144814015Y-152485688D01*
X145123079Y-152426731D01*
X145422315Y-152329503D01*
X145707007Y-152195537D01*
X145972663Y-152026947D01*
X145996461Y-152007259D01*
X146060659Y-151979694D01*
X146129573Y-151991214D01*
X146181318Y-152038162D01*
X146199500Y-152102803D01*
X146199500Y-152523698D01*
X146198439Y-152539883D01*
X146194619Y-152568898D01*
X146194619Y-152568900D01*
X146211884Y-152700033D01*
X146211885Y-152700038D01*
X146214054Y-152716524D01*
X146271034Y-152854087D01*
X146271035Y-152854089D01*
X146271036Y-152854090D01*
X146361680Y-152972220D01*
X146384896Y-152990034D01*
X146397091Y-153000729D01*
X146666220Y-153269858D01*
X146676914Y-153282052D01*
X146694730Y-153305270D01*
X146764599Y-153358882D01*
X146812860Y-153395914D01*
X146950425Y-153452895D01*
X147078613Y-153469771D01*
X147098049Y-153472331D01*
X147098050Y-153472331D01*
X147098051Y-153472331D01*
X147127065Y-153468511D01*
X147143251Y-153467450D01*
X147298500Y-153467450D01*
X147365539Y-153487135D01*
X147411294Y-153539939D01*
X147422500Y-153591450D01*
X147422500Y-153603876D01*
X147428907Y-153663483D01*
X147479201Y-153798328D01*
X147479205Y-153798335D01*
X147565451Y-153913544D01*
X147565454Y-153913547D01*
X147680663Y-153999793D01*
X147680670Y-153999797D01*
X147730480Y-154018375D01*
X147786414Y-154060246D01*
X147810831Y-154125710D01*
X147795980Y-154193983D01*
X147774828Y-154222238D01*
X147717874Y-154279192D01*
X147656551Y-154312677D01*
X147586859Y-154307693D01*
X147557308Y-154291829D01*
X147452734Y-154215851D01*
X147452729Y-154215848D01*
X147279807Y-154138857D01*
X147279802Y-154138855D01*
X147134001Y-154107865D01*
X147094646Y-154099500D01*
X146905354Y-154099500D01*
X146872897Y-154106398D01*
X146720197Y-154138855D01*
X146720192Y-154138857D01*
X146547270Y-154215848D01*
X146547265Y-154215851D01*
X146394129Y-154327111D01*
X146267466Y-154467785D01*
X146172821Y-154631715D01*
X146172818Y-154631722D01*
X146116687Y-154804478D01*
X146114326Y-154811744D01*
X146094540Y-155000000D01*
X146114326Y-155188256D01*
X146114327Y-155188259D01*
X146172818Y-155368277D01*
X146172821Y-155368284D01*
X146267467Y-155532216D01*
X146394129Y-155672888D01*
X146547265Y-155784148D01*
X146547270Y-155784151D01*
X146720192Y-155861142D01*
X146720197Y-155861144D01*
X146905354Y-155900500D01*
X146905355Y-155900500D01*
X147094644Y-155900500D01*
X147094646Y-155900500D01*
X147279803Y-155861144D01*
X147325065Y-155840991D01*
X147394312Y-155831706D01*
X147457589Y-155861334D01*
X147494804Y-155920468D01*
X147499500Y-155954271D01*
X147499500Y-159078594D01*
X147514310Y-159314004D01*
X147514311Y-159314011D01*
X147573270Y-159623083D01*
X147652533Y-159867030D01*
X147654528Y-159936871D01*
X147618447Y-159996704D01*
X147555746Y-160027532D01*
X147486332Y-160019567D01*
X147446921Y-159993029D01*
X143725449Y-156271557D01*
X138490761Y-151036868D01*
X138457276Y-150975545D01*
X138454656Y-150956460D01*
X138426082Y-150469473D01*
X138419444Y-150354492D01*
X138419241Y-150347723D01*
X138418289Y-149943263D01*
X138418405Y-149691939D01*
X138418582Y-149685420D01*
X138438925Y-149308395D01*
X138455230Y-149030437D01*
X138455760Y-149024166D01*
X138496034Y-148660055D01*
X138529788Y-148372189D01*
X138530645Y-148366175D01*
X138590254Y-148011294D01*
X138590346Y-148010760D01*
X138641839Y-147719275D01*
X138642993Y-147713543D01*
X138721591Y-147366421D01*
X138721750Y-147365734D01*
X138791026Y-147073794D01*
X138792440Y-147068396D01*
X138889613Y-146729097D01*
X138889992Y-146727805D01*
X138976842Y-146437948D01*
X138978470Y-146432919D01*
X139093979Y-146101311D01*
X139094445Y-146100002D01*
X139198658Y-145813843D01*
X139200499Y-145809098D01*
X139333950Y-145485771D01*
X139334564Y-145484316D01*
X139455770Y-145203434D01*
X139457813Y-145198953D01*
X139608745Y-144884654D01*
X139609543Y-144883030D01*
X139747350Y-144608696D01*
X139749469Y-144604672D01*
X139917455Y-144300044D01*
X139918530Y-144298139D01*
X140072396Y-144031661D01*
X140074635Y-144027944D01*
X140259190Y-143733710D01*
X140260476Y-143731710D01*
X140429853Y-143474184D01*
X140432183Y-143470770D01*
X140632733Y-143187744D01*
X140634227Y-143185687D01*
X140818554Y-142938068D01*
X140820936Y-142934975D01*
X141036852Y-142663961D01*
X141038790Y-142661593D01*
X141237234Y-142425052D01*
X141239585Y-142422334D01*
X141470332Y-142163963D01*
X141472512Y-142161588D01*
X141684526Y-141936803D01*
X141686809Y-141934453D01*
X141931705Y-141689477D01*
X141934137Y-141687113D01*
X142158858Y-141475021D01*
X142161185Y-141472885D01*
X142419463Y-141242071D01*
X142422209Y-141239692D01*
X142658803Y-141041073D01*
X142660997Y-141039278D01*
X142931997Y-140823229D01*
X142935085Y-140820848D01*
X143182561Y-140636503D01*
X143184750Y-140634912D01*
X143467687Y-140434288D01*
X143471059Y-140431984D01*
X143728593Y-140262481D01*
X143730589Y-140261200D01*
X144024688Y-140076595D01*
X144028471Y-140074315D01*
X144294902Y-139920360D01*
X144296666Y-139919363D01*
X144601317Y-139751235D01*
X144605414Y-139749077D01*
X144879571Y-139611248D01*
X144881327Y-139610384D01*
X145195556Y-139459360D01*
X145200014Y-139457327D01*
X145480932Y-139335997D01*
X145482325Y-139335409D01*
X145805552Y-139201877D01*
X145810340Y-139200016D01*
X146096440Y-139095719D01*
X146097783Y-139095240D01*
X146429319Y-138979636D01*
X146434418Y-138977983D01*
X146724212Y-138891050D01*
X146725378Y-138890707D01*
X147064751Y-138793394D01*
X147070233Y-138791958D01*
X147362140Y-138722590D01*
X147362707Y-138722458D01*
X147709860Y-138643735D01*
X147715567Y-138642584D01*
X148007171Y-138590972D01*
X148007622Y-138590894D01*
X148362419Y-138531181D01*
X148368427Y-138530322D01*
X148656397Y-138496460D01*
X148951601Y-138463712D01*
X149020398Y-138475885D01*
G37*
%TD.AperFunction*%
%TA.AperFunction,Conductor*%
G36*
X150615539Y-152794635D02*
G01*
X150661294Y-152847439D01*
X150672500Y-152898950D01*
X150672500Y-152904950D01*
X150652815Y-152971989D01*
X150600011Y-153017744D01*
X150548500Y-153028950D01*
X149451499Y-153028950D01*
X149384460Y-153009265D01*
X149338705Y-152956461D01*
X149327499Y-152904950D01*
X149327499Y-152898950D01*
X149347184Y-152831911D01*
X149399988Y-152786156D01*
X149451499Y-152774950D01*
X150548500Y-152774950D01*
X150615539Y-152794635D01*
G37*
%TD.AperFunction*%
%TA.AperFunction,Conductor*%
G36*
X147535703Y-150166003D02*
G01*
X147542181Y-150172035D01*
X148905865Y-151535719D01*
X148939350Y-151597042D01*
X148934366Y-151666734D01*
X148892494Y-151722667D01*
X148827030Y-151747084D01*
X148818184Y-151747400D01*
X148525130Y-151747400D01*
X148525123Y-151747401D01*
X148465518Y-151753808D01*
X148418330Y-151771408D01*
X148348638Y-151776391D01*
X148331666Y-151771407D01*
X148284485Y-151753810D01*
X148284484Y-151753809D01*
X148284482Y-151753809D01*
X148224872Y-151747400D01*
X148224862Y-151747400D01*
X147875129Y-151747400D01*
X147875122Y-151747401D01*
X147815515Y-151753808D01*
X147680670Y-151804102D01*
X147680663Y-151804106D01*
X147565454Y-151890352D01*
X147553766Y-151905966D01*
X147497832Y-151947836D01*
X147428140Y-151952820D01*
X147366818Y-151919334D01*
X147333333Y-151858010D01*
X147330500Y-151831654D01*
X147330500Y-150259716D01*
X147350185Y-150192677D01*
X147402989Y-150146922D01*
X147472147Y-150136978D01*
X147535703Y-150166003D01*
G37*
%TD.AperFunction*%
%TA.AperFunction,Conductor*%
G36*
X146846127Y-147549270D02*
G01*
X146852371Y-147550943D01*
X146852375Y-147550945D01*
X146950791Y-147563902D01*
X146999999Y-147570381D01*
X147000000Y-147570381D01*
X147000001Y-147570381D01*
X147029015Y-147566561D01*
X147045201Y-147565500D01*
X147298502Y-147565500D01*
X147365541Y-147585185D01*
X147411296Y-147637989D01*
X147422502Y-147689500D01*
X147422502Y-147799976D01*
X147428909Y-147859583D01*
X147479203Y-147994428D01*
X147479207Y-147994435D01*
X147565453Y-148109644D01*
X147565456Y-148109647D01*
X147680665Y-148195893D01*
X147680672Y-148195897D01*
X147725000Y-148212430D01*
X147815518Y-148246191D01*
X147875128Y-148252600D01*
X148224873Y-148252599D01*
X148284484Y-148246191D01*
X148332383Y-148228325D01*
X148402072Y-148223340D01*
X148419051Y-148228326D01*
X148465624Y-148245697D01*
X148465627Y-148245698D01*
X148525155Y-148252099D01*
X148525172Y-148252100D01*
X148573000Y-148252100D01*
X148573000Y-148099550D01*
X148592685Y-148032511D01*
X148597711Y-148025268D01*
X148600724Y-148021244D01*
X148656646Y-147979367D01*
X148726337Y-147974370D01*
X148787666Y-148007844D01*
X148799262Y-148021224D01*
X148802262Y-148025231D01*
X148826683Y-148090694D01*
X148827000Y-148099548D01*
X148827000Y-148252100D01*
X148874828Y-148252100D01*
X148874844Y-148252099D01*
X148934372Y-148245698D01*
X148934375Y-148245697D01*
X148980949Y-148228326D01*
X149050640Y-148223340D01*
X149067618Y-148228326D01*
X149115509Y-148246188D01*
X149115512Y-148246189D01*
X149115518Y-148246191D01*
X149175128Y-148252600D01*
X149348635Y-148252599D01*
X149415674Y-148272283D01*
X149461429Y-148325087D01*
X149463196Y-148329146D01*
X149506036Y-148432571D01*
X149569407Y-148515159D01*
X149594352Y-148577682D01*
X149604488Y-148674119D01*
X149604489Y-148674122D01*
X149662980Y-148854140D01*
X149662983Y-148854147D01*
X149757629Y-149018079D01*
X149786952Y-149050645D01*
X149884291Y-149158751D01*
X150037427Y-149270011D01*
X150037432Y-149270014D01*
X150210354Y-149347005D01*
X150210359Y-149347007D01*
X150395516Y-149386363D01*
X150395529Y-149386363D01*
X150400709Y-149386908D01*
X150465323Y-149413492D01*
X150475429Y-149422548D01*
X152258600Y-151205719D01*
X152292085Y-151267042D01*
X152287101Y-151336734D01*
X152245229Y-151392667D01*
X152179765Y-151417084D01*
X152170919Y-151417400D01*
X150438384Y-151417400D01*
X150371345Y-151397715D01*
X150350703Y-151381081D01*
X146726346Y-147756724D01*
X146692861Y-147695401D01*
X146697845Y-147625709D01*
X146739717Y-147569776D01*
X146805181Y-147545359D01*
X146846127Y-147549270D01*
G37*
%TD.AperFunction*%
%TD*%
M02*
