%TF.GenerationSoftware,KiCad,Pcbnew,8.0.2*%
%TF.CreationDate,2024-07-18T23:51:49-05:00*%
%TF.ProjectId,MT6701,4d543637-3031-42e6-9b69-6361645f7063,rev?*%
%TF.SameCoordinates,Original*%
%TF.FileFunction,Legend,Top*%
%TF.FilePolarity,Positive*%
%FSLAX46Y46*%
G04 Gerber Fmt 4.6, Leading zero omitted, Abs format (unit mm)*
G04 Created by KiCad (PCBNEW 8.0.2) date 2024-07-18 23:51:49*
%MOMM*%
%LPD*%
G01*
G04 APERTURE LIST*
G04 Aperture macros list*
%AMRoundRect*
0 Rectangle with rounded corners*
0 $1 Rounding radius*
0 $2 $3 $4 $5 $6 $7 $8 $9 X,Y pos of 4 corners*
0 Add a 4 corners polygon primitive as box body*
4,1,4,$2,$3,$4,$5,$6,$7,$8,$9,$2,$3,0*
0 Add four circle primitives for the rounded corners*
1,1,$1+$1,$2,$3*
1,1,$1+$1,$4,$5*
1,1,$1+$1,$6,$7*
1,1,$1+$1,$8,$9*
0 Add four rect primitives between the rounded corners*
20,1,$1+$1,$2,$3,$4,$5,0*
20,1,$1+$1,$4,$5,$6,$7,0*
20,1,$1+$1,$6,$7,$8,$9,0*
20,1,$1+$1,$8,$9,$2,$3,0*%
G04 Aperture macros list end*
%ADD10C,0.050000*%
%ADD11C,0.150000*%
%ADD12C,0.120000*%
%ADD13O,7.000000X4.000000*%
%ADD14O,4.000000X7.000000*%
%ADD15RoundRect,0.062500X-0.350000X-0.062500X0.350000X-0.062500X0.350000X0.062500X-0.350000X0.062500X0*%
%ADD16RoundRect,0.062500X-0.062500X-0.350000X0.062500X-0.350000X0.062500X0.350000X-0.062500X0.350000X0*%
%ADD17R,1.700000X1.700000*%
%ADD18RoundRect,0.135000X-0.185000X0.135000X-0.185000X-0.135000X0.185000X-0.135000X0.185000X0.135000X0*%
%ADD19RoundRect,0.140000X0.140000X0.170000X-0.140000X0.170000X-0.140000X-0.170000X0.140000X-0.170000X0*%
G04 APERTURE END LIST*
D10*
G36*
X153842357Y-156556601D02*
G01*
X153805053Y-156519296D01*
X153701256Y-155964738D01*
X153690628Y-155915201D01*
X153675602Y-155862192D01*
X153658099Y-155816201D01*
X153634549Y-155771415D01*
X153603505Y-155731931D01*
X153562930Y-155703445D01*
X153509084Y-155698712D01*
X153463506Y-155719626D01*
X153427863Y-155749719D01*
X153397629Y-155789668D01*
X153380671Y-155835770D01*
X153376990Y-155888024D01*
X153384661Y-155938794D01*
X153386586Y-155946431D01*
X153234605Y-155964393D01*
X153223025Y-155915661D01*
X153220452Y-155864668D01*
X153226884Y-155811416D01*
X153229251Y-155800495D01*
X153244294Y-155752726D01*
X153266495Y-155708509D01*
X153295855Y-155667844D01*
X153315259Y-155646787D01*
X153356322Y-155609209D01*
X153397518Y-155578468D01*
X153445749Y-155551244D01*
X153494163Y-155533326D01*
X153535804Y-155525374D01*
X153589958Y-155525580D01*
X153641198Y-155538284D01*
X153689523Y-155563488D01*
X153729417Y-155595796D01*
X153734934Y-155601192D01*
X153768337Y-155642165D01*
X153793850Y-155686217D01*
X153816485Y-155738515D01*
X153833150Y-155788395D01*
X153847815Y-155844000D01*
X153855655Y-155880112D01*
X153928192Y-156244176D01*
X154195368Y-155977000D01*
X154308663Y-156090295D01*
X153842357Y-156556601D01*
G37*
G36*
X154183204Y-154937085D02*
G01*
X154240557Y-154949359D01*
X154299878Y-154972325D01*
X154361165Y-155005983D01*
X154403116Y-155034363D01*
X154445942Y-155067494D01*
X154489642Y-155105377D01*
X154534216Y-155148012D01*
X154574246Y-155190136D01*
X154610056Y-155232228D01*
X154641645Y-155274287D01*
X154669013Y-155316314D01*
X154697289Y-155368802D01*
X154718970Y-155421240D01*
X154734056Y-155473627D01*
X154736282Y-155484098D01*
X154742933Y-155535261D01*
X154742054Y-155584156D01*
X154731058Y-155639835D01*
X154709218Y-155692248D01*
X154682734Y-155733430D01*
X154648720Y-155772344D01*
X154607428Y-155809116D01*
X154564938Y-155838046D01*
X154512369Y-155862410D01*
X154458076Y-155875480D01*
X154402059Y-155877257D01*
X154363756Y-155872168D01*
X154314256Y-155858491D01*
X154262581Y-155836567D01*
X154219675Y-155813090D01*
X154175376Y-155784335D01*
X154129684Y-155750301D01*
X154082600Y-155710989D01*
X154046373Y-155678041D01*
X154009363Y-155642124D01*
X153974955Y-155605491D01*
X153937051Y-155558554D01*
X153904823Y-155510344D01*
X153878270Y-155460861D01*
X153857393Y-155410104D01*
X153842191Y-155358074D01*
X153835794Y-155326245D01*
X153830390Y-155274033D01*
X153831901Y-155232694D01*
X153982915Y-155232694D01*
X153989252Y-155287706D01*
X154007649Y-155336057D01*
X154037893Y-155388267D01*
X154068350Y-155429957D01*
X154105471Y-155473817D01*
X154149255Y-155519848D01*
X154192152Y-155561396D01*
X154232764Y-155597960D01*
X154271091Y-155629541D01*
X154314067Y-155660858D01*
X154360045Y-155688325D01*
X154384308Y-155699635D01*
X154434876Y-155713184D01*
X154485487Y-155709203D01*
X154530228Y-155685186D01*
X154542506Y-155674074D01*
X154573636Y-155633464D01*
X154589638Y-155584688D01*
X154586076Y-155532066D01*
X154581192Y-155515530D01*
X154558147Y-155466946D01*
X154530790Y-155425223D01*
X154494799Y-155378971D01*
X154458211Y-155336968D01*
X154424624Y-155301100D01*
X154396915Y-155272879D01*
X154353757Y-155231087D01*
X154313551Y-155194979D01*
X154269199Y-155159152D01*
X154222827Y-155127698D01*
X154176915Y-155105392D01*
X154171707Y-155103627D01*
X154122057Y-155095899D01*
X154071689Y-155107697D01*
X154029761Y-155136874D01*
X154025771Y-155140759D01*
X153995087Y-155183712D01*
X153982915Y-155232694D01*
X153831901Y-155232694D01*
X153832205Y-155224369D01*
X153843911Y-155168133D01*
X153866012Y-155115564D01*
X153898508Y-155066663D01*
X153925947Y-155036099D01*
X153973464Y-154994912D01*
X154022948Y-154964417D01*
X154074399Y-154944614D01*
X154127818Y-154935503D01*
X154183204Y-154937085D01*
G37*
G36*
X155326072Y-155072885D02*
G01*
X155023146Y-155037308D01*
X155072540Y-155326417D01*
X154928676Y-155470281D01*
X154862530Y-155004839D01*
X154425239Y-154934721D01*
X154564613Y-154795347D01*
X154832997Y-154844050D01*
X154796729Y-154563231D01*
X154935239Y-154424721D01*
X154989296Y-154878073D01*
X155473218Y-154925740D01*
X155326072Y-155072885D01*
G37*
G36*
X155547999Y-154850958D02*
G01*
X155510695Y-154813654D01*
X155406899Y-154259096D01*
X155396270Y-154209559D01*
X155381244Y-154156549D01*
X155363742Y-154110558D01*
X155340191Y-154065773D01*
X155309147Y-154026288D01*
X155268572Y-153997803D01*
X155214726Y-153993070D01*
X155169148Y-154013984D01*
X155133505Y-154044077D01*
X155103271Y-154084026D01*
X155086313Y-154130128D01*
X155082633Y-154182382D01*
X155090303Y-154233152D01*
X155092229Y-154240789D01*
X154940248Y-154258750D01*
X154928668Y-154210018D01*
X154926094Y-154159026D01*
X154932526Y-154105774D01*
X154934894Y-154094853D01*
X154949936Y-154047084D01*
X154972137Y-154002867D01*
X155001497Y-153962201D01*
X155020901Y-153941144D01*
X155061964Y-153903567D01*
X155103160Y-153872826D01*
X155151392Y-153845602D01*
X155199805Y-153827684D01*
X155241446Y-153819732D01*
X155295600Y-153819937D01*
X155346840Y-153832642D01*
X155395165Y-153857846D01*
X155435059Y-153890154D01*
X155440576Y-153895550D01*
X155473979Y-153936523D01*
X155499492Y-153980575D01*
X155522128Y-154032873D01*
X155538792Y-154082752D01*
X155553457Y-154138358D01*
X155561298Y-154174470D01*
X155633834Y-154538534D01*
X155901010Y-154271358D01*
X156014305Y-154384653D01*
X155547999Y-154850958D01*
G37*
G36*
X155888846Y-153231443D02*
G01*
X155946199Y-153243717D01*
X156005520Y-153266683D01*
X156066807Y-153300341D01*
X156108759Y-153328720D01*
X156151584Y-153361851D01*
X156195284Y-153399735D01*
X156239859Y-153442370D01*
X156279888Y-153484494D01*
X156315698Y-153526586D01*
X156347287Y-153568645D01*
X156374655Y-153610672D01*
X156402931Y-153663160D01*
X156424612Y-153715597D01*
X156439698Y-153767984D01*
X156441924Y-153778456D01*
X156448575Y-153829619D01*
X156447696Y-153878514D01*
X156436700Y-153934193D01*
X156414860Y-153986606D01*
X156388377Y-154027788D01*
X156354362Y-154066702D01*
X156313070Y-154103474D01*
X156270580Y-154132404D01*
X156218011Y-154156768D01*
X156163718Y-154169838D01*
X156107701Y-154171615D01*
X156069398Y-154166525D01*
X156019898Y-154152849D01*
X155968223Y-154130925D01*
X155925317Y-154107448D01*
X155881018Y-154078692D01*
X155835326Y-154044659D01*
X155788242Y-154005346D01*
X155752016Y-153972398D01*
X155715006Y-153936481D01*
X155680597Y-153899849D01*
X155642693Y-153852912D01*
X155610465Y-153804702D01*
X155583913Y-153755219D01*
X155563035Y-153704462D01*
X155547833Y-153652432D01*
X155541436Y-153620603D01*
X155536033Y-153568391D01*
X155537543Y-153527052D01*
X155688557Y-153527052D01*
X155694894Y-153582064D01*
X155713291Y-153630415D01*
X155743535Y-153682625D01*
X155773992Y-153724314D01*
X155811113Y-153768175D01*
X155854897Y-153814206D01*
X155897795Y-153855754D01*
X155938407Y-153892318D01*
X155976733Y-153923898D01*
X156019709Y-153955216D01*
X156065687Y-153982683D01*
X156089950Y-153993992D01*
X156140518Y-154007541D01*
X156191129Y-154003561D01*
X156235870Y-153979544D01*
X156248148Y-153968432D01*
X156279278Y-153927821D01*
X156295280Y-153879046D01*
X156291718Y-153826424D01*
X156286834Y-153809888D01*
X156263789Y-153761304D01*
X156236432Y-153719581D01*
X156200441Y-153673329D01*
X156163853Y-153631326D01*
X156130266Y-153595458D01*
X156102557Y-153567236D01*
X156059400Y-153525445D01*
X156019193Y-153489337D01*
X155974842Y-153453510D01*
X155928470Y-153422056D01*
X155882557Y-153399750D01*
X155877349Y-153397985D01*
X155827700Y-153390257D01*
X155777332Y-153402054D01*
X155735403Y-153431232D01*
X155731413Y-153435117D01*
X155700730Y-153478069D01*
X155688557Y-153527052D01*
X155537543Y-153527052D01*
X155537847Y-153518726D01*
X155549554Y-153462490D01*
X155571654Y-153409922D01*
X155604150Y-153361020D01*
X155631589Y-153330457D01*
X155679106Y-153289270D01*
X155728590Y-153258774D01*
X155780042Y-153238972D01*
X155833460Y-153229861D01*
X155888846Y-153231443D01*
G37*
G36*
X155667926Y-157129016D02*
G01*
X155598326Y-157198616D01*
X154613730Y-156746300D01*
X154752585Y-156607444D01*
X155395396Y-156920733D01*
X155091262Y-156268768D01*
X155227181Y-156132849D01*
X155667926Y-157129016D01*
G37*
G36*
X156209877Y-156564959D02*
G01*
X155703158Y-156058240D01*
X155644956Y-156289493D01*
X155523544Y-156168081D01*
X155540229Y-156116898D01*
X155554102Y-156066541D01*
X155565163Y-156017009D01*
X155573413Y-155968304D01*
X155579770Y-155908583D01*
X155581734Y-155850152D01*
X155579305Y-155793011D01*
X155578292Y-155781738D01*
X155628895Y-155731135D01*
X156336297Y-156438538D01*
X156209877Y-156564959D01*
G37*
G36*
X156532491Y-156112124D02*
G01*
X156504290Y-156069495D01*
X156496568Y-156025081D01*
X156506988Y-155975042D01*
X156533182Y-155937691D01*
X156575946Y-155909258D01*
X156620398Y-155901251D01*
X156670253Y-155911217D01*
X156707442Y-155937173D01*
X156735606Y-155979765D01*
X156743538Y-156024390D01*
X156733388Y-156074428D01*
X156707269Y-156111779D01*
X156664408Y-156140213D01*
X156619708Y-156148220D01*
X156569632Y-156138033D01*
X156532491Y-156112124D01*
G37*
G36*
X156713067Y-154783100D02*
G01*
X156770420Y-154795374D01*
X156829741Y-154818340D01*
X156891028Y-154851998D01*
X156932980Y-154880377D01*
X156975805Y-154913508D01*
X157019505Y-154951392D01*
X157064080Y-154994027D01*
X157104110Y-155036151D01*
X157139919Y-155078243D01*
X157171508Y-155120302D01*
X157198876Y-155162329D01*
X157227152Y-155214817D01*
X157248833Y-155267254D01*
X157263919Y-155319641D01*
X157266145Y-155330113D01*
X157272796Y-155381276D01*
X157271917Y-155430171D01*
X157260921Y-155485850D01*
X157239081Y-155538263D01*
X157212598Y-155579445D01*
X157178583Y-155618358D01*
X157137291Y-155655131D01*
X157094801Y-155684061D01*
X157042232Y-155708425D01*
X156987939Y-155721495D01*
X156931922Y-155723272D01*
X156893619Y-155718182D01*
X156844120Y-155704506D01*
X156792444Y-155682582D01*
X156749538Y-155659105D01*
X156705239Y-155630349D01*
X156659547Y-155596316D01*
X156612463Y-155557003D01*
X156576237Y-155524055D01*
X156539227Y-155488138D01*
X156504818Y-155451506D01*
X156466914Y-155404569D01*
X156434686Y-155356359D01*
X156408134Y-155306876D01*
X156387256Y-155256119D01*
X156372054Y-155204089D01*
X156365657Y-155172259D01*
X156360254Y-155120048D01*
X156361764Y-155078709D01*
X156512778Y-155078709D01*
X156519115Y-155133721D01*
X156537512Y-155182072D01*
X156567756Y-155234282D01*
X156598213Y-155275971D01*
X156635334Y-155319832D01*
X156679118Y-155365863D01*
X156722016Y-155407411D01*
X156762628Y-155443975D01*
X156800954Y-155475555D01*
X156843930Y-155506873D01*
X156889908Y-155534340D01*
X156914171Y-155545649D01*
X156964739Y-155559198D01*
X157015350Y-155555218D01*
X157060091Y-155531201D01*
X157072369Y-155520089D01*
X157103499Y-155479478D01*
X157119501Y-155430703D01*
X157115939Y-155378081D01*
X157111056Y-155361545D01*
X157088010Y-155312961D01*
X157060653Y-155271238D01*
X157024662Y-155224986D01*
X156988074Y-155182983D01*
X156954487Y-155147115D01*
X156926778Y-155118893D01*
X156883621Y-155077102D01*
X156843414Y-155040994D01*
X156799063Y-155005167D01*
X156752691Y-154973713D01*
X156706778Y-154951407D01*
X156701570Y-154949642D01*
X156651921Y-154941914D01*
X156601553Y-154953711D01*
X156559624Y-154982889D01*
X156555634Y-154986773D01*
X156524951Y-155029726D01*
X156512778Y-155078709D01*
X156361764Y-155078709D01*
X156362068Y-155070383D01*
X156373775Y-155014147D01*
X156395876Y-154961579D01*
X156428371Y-154912677D01*
X156455810Y-154882114D01*
X156503327Y-154840926D01*
X156552811Y-154810431D01*
X156604263Y-154790629D01*
X156657681Y-154781518D01*
X156713067Y-154783100D01*
G37*
D11*
X146238095Y-146654819D02*
X146238095Y-147464342D01*
X146238095Y-147464342D02*
X146285714Y-147559580D01*
X146285714Y-147559580D02*
X146333333Y-147607200D01*
X146333333Y-147607200D02*
X146428571Y-147654819D01*
X146428571Y-147654819D02*
X146619047Y-147654819D01*
X146619047Y-147654819D02*
X146714285Y-147607200D01*
X146714285Y-147607200D02*
X146761904Y-147559580D01*
X146761904Y-147559580D02*
X146809523Y-147464342D01*
X146809523Y-147464342D02*
X146809523Y-146654819D01*
X147809523Y-147654819D02*
X147238095Y-147654819D01*
X147523809Y-147654819D02*
X147523809Y-146654819D01*
X147523809Y-146654819D02*
X147428571Y-146797676D01*
X147428571Y-146797676D02*
X147333333Y-146892914D01*
X147333333Y-146892914D02*
X147238095Y-146940533D01*
X147554819Y-152116666D02*
X147078628Y-152449999D01*
X147554819Y-152688094D02*
X146554819Y-152688094D01*
X146554819Y-152688094D02*
X146554819Y-152307142D01*
X146554819Y-152307142D02*
X146602438Y-152211904D01*
X146602438Y-152211904D02*
X146650057Y-152164285D01*
X146650057Y-152164285D02*
X146745295Y-152116666D01*
X146745295Y-152116666D02*
X146888152Y-152116666D01*
X146888152Y-152116666D02*
X146983390Y-152164285D01*
X146983390Y-152164285D02*
X147031009Y-152211904D01*
X147031009Y-152211904D02*
X147078628Y-152307142D01*
X147078628Y-152307142D02*
X147078628Y-152688094D01*
X146650057Y-151735713D02*
X146602438Y-151688094D01*
X146602438Y-151688094D02*
X146554819Y-151592856D01*
X146554819Y-151592856D02*
X146554819Y-151354761D01*
X146554819Y-151354761D02*
X146602438Y-151259523D01*
X146602438Y-151259523D02*
X146650057Y-151211904D01*
X146650057Y-151211904D02*
X146745295Y-151164285D01*
X146745295Y-151164285D02*
X146840533Y-151164285D01*
X146840533Y-151164285D02*
X146983390Y-151211904D01*
X146983390Y-151211904D02*
X147554819Y-151783332D01*
X147554819Y-151783332D02*
X147554819Y-151164285D01*
X153304819Y-152066666D02*
X152828628Y-152399999D01*
X153304819Y-152638094D02*
X152304819Y-152638094D01*
X152304819Y-152638094D02*
X152304819Y-152257142D01*
X152304819Y-152257142D02*
X152352438Y-152161904D01*
X152352438Y-152161904D02*
X152400057Y-152114285D01*
X152400057Y-152114285D02*
X152495295Y-152066666D01*
X152495295Y-152066666D02*
X152638152Y-152066666D01*
X152638152Y-152066666D02*
X152733390Y-152114285D01*
X152733390Y-152114285D02*
X152781009Y-152161904D01*
X152781009Y-152161904D02*
X152828628Y-152257142D01*
X152828628Y-152257142D02*
X152828628Y-152638094D01*
X153304819Y-151114285D02*
X153304819Y-151685713D01*
X153304819Y-151399999D02*
X152304819Y-151399999D01*
X152304819Y-151399999D02*
X152447676Y-151495237D01*
X152447676Y-151495237D02*
X152542914Y-151590475D01*
X152542914Y-151590475D02*
X152590533Y-151685713D01*
X151783333Y-147559580D02*
X151735714Y-147607200D01*
X151735714Y-147607200D02*
X151592857Y-147654819D01*
X151592857Y-147654819D02*
X151497619Y-147654819D01*
X151497619Y-147654819D02*
X151354762Y-147607200D01*
X151354762Y-147607200D02*
X151259524Y-147511961D01*
X151259524Y-147511961D02*
X151211905Y-147416723D01*
X151211905Y-147416723D02*
X151164286Y-147226247D01*
X151164286Y-147226247D02*
X151164286Y-147083390D01*
X151164286Y-147083390D02*
X151211905Y-146892914D01*
X151211905Y-146892914D02*
X151259524Y-146797676D01*
X151259524Y-146797676D02*
X151354762Y-146702438D01*
X151354762Y-146702438D02*
X151497619Y-146654819D01*
X151497619Y-146654819D02*
X151592857Y-146654819D01*
X151592857Y-146654819D02*
X151735714Y-146702438D01*
X151735714Y-146702438D02*
X151783333Y-146750057D01*
X152735714Y-147654819D02*
X152164286Y-147654819D01*
X152450000Y-147654819D02*
X152450000Y-146654819D01*
X152450000Y-146654819D02*
X152354762Y-146797676D01*
X152354762Y-146797676D02*
X152259524Y-146892914D01*
X152259524Y-146892914D02*
X152164286Y-146940533D01*
D12*
%TO.C,U1*%
X148390000Y-148865000D02*
X148390000Y-148630000D01*
X148390000Y-151610000D02*
X148390000Y-151135000D01*
X148865000Y-148390000D02*
X148690000Y-148390000D01*
X148865000Y-151610000D02*
X148390000Y-151610000D01*
X151135000Y-148390000D02*
X151610000Y-148390000D01*
X151135000Y-151610000D02*
X151610000Y-151610000D01*
X151610000Y-148390000D02*
X151610000Y-148865000D01*
X151610000Y-151610000D02*
X151610000Y-151135000D01*
X148390000Y-148390000D02*
X148150000Y-148060000D01*
X148630000Y-148060000D01*
X148390000Y-148390000D01*
G36*
X148390000Y-148390000D02*
G01*
X148150000Y-148060000D01*
X148630000Y-148060000D01*
X148390000Y-148390000D01*
G37*
%TO.C,R2*%
X147020000Y-149846359D02*
X147020000Y-150153641D01*
X147780000Y-149846359D02*
X147780000Y-150153641D01*
%TO.C,R1*%
X152220000Y-149896359D02*
X152220000Y-150203641D01*
X152980000Y-149896359D02*
X152980000Y-150203641D01*
%TO.C,C1*%
X150107836Y-147040000D02*
X149892164Y-147040000D01*
X150107836Y-147760000D02*
X149892164Y-147760000D01*
%TD*%
%LPC*%
D13*
%TO.C,REF\u002A\u002A*%
X143000000Y-150050000D03*
D14*
X150000000Y-142550000D03*
X150000000Y-157550000D03*
D13*
X157000000Y-150050000D03*
%TD*%
D15*
%TO.C,U1*%
X148537500Y-149250000D03*
X148537500Y-149750000D03*
X148537500Y-150250000D03*
X148537500Y-150750000D03*
D16*
X149250000Y-151462500D03*
X149750000Y-151462500D03*
X150250000Y-151462500D03*
X150750000Y-151462500D03*
D15*
X151462500Y-150750000D03*
X151462500Y-150250000D03*
X151462500Y-149750000D03*
X151462500Y-149250000D03*
D16*
X150750000Y-148537500D03*
X150250000Y-148537500D03*
X149750000Y-148537500D03*
X149250000Y-148537500D03*
D17*
X150000000Y-150000000D03*
%TD*%
D18*
%TO.C,R2*%
X147400000Y-149490000D03*
X147400000Y-150510000D03*
%TD*%
%TO.C,R1*%
X152600000Y-149540000D03*
X152600000Y-150560000D03*
%TD*%
D19*
%TO.C,C1*%
X150480000Y-147400000D03*
X149520000Y-147400000D03*
%TD*%
%LPD*%
M02*
