M48
; DRILL file {KiCad 8.0.2} date 2024-07-18T23:51:49-0500
; FORMAT={-:-/ absolute / inch / decimal}
; #@! TF.CreationDate,2024-07-18T23:51:49-05:00
; #@! TF.GenerationSoftware,Kicad,Pcbnew,8.0.2
; #@! TF.FileFunction,Plated,1,2,PTH
FMAT,2
INCH
; #@! TA.AperFunction,Plated,PTH,ViaDrill
T1C0.0118
; #@! TA.AperFunction,Plated,PTH,ComponentDrill
T2C0.0866
%
G90
G05
T1
X5.5197Y-5.7579
X5.6158Y-5.7609
X5.6854Y-5.6913
X5.7559Y-5.624
X5.7618Y-5.5197
X5.7835Y-5.8209
X5.8031Y-5.9256
X5.8455Y-5.9622
X5.8858Y-5.8858
X5.8894Y-5.7969
X5.8965Y-5.905
X5.9252Y-5.8858
X5.9252Y-5.9252
X5.9606Y-5.9606
X6.0079Y-5.9276
X6.0335Y-5.6043
X6.0628Y-5.7224
T2
G00X5.5748Y-5.9075
M15
G01X5.685Y-5.9075
M16
G05
G00X5.9055Y-5.6673
M15
G01X5.9055Y-5.5571
M16
G05
G00X5.9055Y-6.2579
M15
G01X5.9055Y-6.1476
M16
G05
G00X6.126Y-5.9075
M15
G01X6.2362Y-5.9075
M16
G05
M30
