%TF.GenerationSoftware,KiCad,Pcbnew,8.0.2*%
%TF.CreationDate,2024-07-18T23:51:49-05:00*%
%TF.ProjectId,MT6701,4d543637-3031-42e6-9b69-6361645f7063,rev?*%
%TF.SameCoordinates,Original*%
%TF.FileFunction,Soldermask,Bot*%
%TF.FilePolarity,Negative*%
%FSLAX46Y46*%
G04 Gerber Fmt 4.6, Leading zero omitted, Abs format (unit mm)*
G04 Created by KiCad (PCBNEW 8.0.2) date 2024-07-18 23:51:49*
%MOMM*%
%LPD*%
G01*
G04 APERTURE LIST*
G04 Aperture macros list*
%AMRoundRect*
0 Rectangle with rounded corners*
0 $1 Rounding radius*
0 $2 $3 $4 $5 $6 $7 $8 $9 X,Y pos of 4 corners*
0 Add a 4 corners polygon primitive as box body*
4,1,4,$2,$3,$4,$5,$6,$7,$8,$9,$2,$3,0*
0 Add four circle primitives for the rounded corners*
1,1,$1+$1,$2,$3*
1,1,$1+$1,$4,$5*
1,1,$1+$1,$6,$7*
1,1,$1+$1,$8,$9*
0 Add four rect primitives between the rounded corners*
20,1,$1+$1,$2,$3,$4,$5,0*
20,1,$1+$1,$4,$5,$6,$7,0*
20,1,$1+$1,$6,$7,$8,$9,0*
20,1,$1+$1,$8,$9,$2,$3,0*%
%AMFreePoly0*
4,1,6,1.000000,0.000000,0.500000,-0.750000,-0.500000,-0.750000,-0.500000,0.750000,0.500000,0.750000,1.000000,0.000000,1.000000,0.000000,$1*%
%AMFreePoly1*
4,1,6,0.500000,-0.750000,-0.650000,-0.750000,-0.150000,0.000000,-0.650000,0.750000,0.500000,0.750000,0.500000,-0.750000,0.500000,-0.750000,$1*%
G04 Aperture macros list end*
%ADD10C,0.050000*%
%ADD11O,7.000000X4.000000*%
%ADD12O,4.000000X7.000000*%
%ADD13R,1.000000X1.000000*%
%ADD14FreePoly0,180.000000*%
%ADD15FreePoly1,180.000000*%
%ADD16RoundRect,0.150000X0.388909X-0.601041X0.601041X-0.388909X-0.388909X0.601041X-0.601041X0.388909X0*%
%ADD17RoundRect,0.250000X0.601041X-0.954594X0.954594X-0.601041X-0.601041X0.954594X-0.954594X0.601041X0*%
G04 APERTURE END LIST*
D10*
G36*
X159181699Y-153450890D02*
G01*
X158980497Y-153366265D01*
X158965317Y-153432588D01*
X158944146Y-153492341D01*
X158912614Y-153552586D01*
X158873256Y-153604249D01*
X158862193Y-153615824D01*
X158811614Y-153659740D01*
X158756537Y-153690199D01*
X158691947Y-153696481D01*
X158634359Y-153665775D01*
X158628393Y-153660080D01*
X158593150Y-153608430D01*
X158576874Y-153546970D01*
X158576365Y-153542424D01*
X158578885Y-153476435D01*
X158591732Y-153412161D01*
X158611037Y-153344391D01*
X158620189Y-153316396D01*
X158640428Y-153253481D01*
X158657840Y-153191496D01*
X158671029Y-153128890D01*
X158674592Y-153094901D01*
X158670604Y-153031644D01*
X158654188Y-152970191D01*
X158651061Y-152962133D01*
X158622708Y-152907512D01*
X158583365Y-152856610D01*
X158570105Y-152842750D01*
X158523300Y-152803176D01*
X158465052Y-152770902D01*
X158401731Y-152752444D01*
X158333337Y-152747802D01*
X158324431Y-152748194D01*
X158262915Y-152757051D01*
X158203796Y-152776446D01*
X158147074Y-152806377D01*
X158092749Y-152846845D01*
X158062782Y-152874701D01*
X158017966Y-152922341D01*
X157973218Y-152977938D01*
X157938321Y-153031819D01*
X157910058Y-153092512D01*
X157894178Y-153159018D01*
X158078541Y-153247529D01*
X158092131Y-153187506D01*
X158115733Y-153124802D01*
X158147943Y-153068386D01*
X158188762Y-153018258D01*
X158194470Y-153012434D01*
X158242963Y-152974766D01*
X158303737Y-152956248D01*
X158307376Y-152956088D01*
X158368541Y-152968725D01*
X158410352Y-152999049D01*
X158439526Y-153054999D01*
X158444461Y-153117784D01*
X158436325Y-153185018D01*
X158420826Y-153250508D01*
X158402718Y-153309093D01*
X158397399Y-153324599D01*
X158377012Y-153387327D01*
X158360559Y-153449411D01*
X158349773Y-153513095D01*
X158348394Y-153532926D01*
X158351699Y-153598178D01*
X158366906Y-153660950D01*
X158373436Y-153678430D01*
X158401336Y-153733167D01*
X158439783Y-153784769D01*
X158461084Y-153807528D01*
X158510392Y-153848654D01*
X158564246Y-153877963D01*
X158631358Y-153896987D01*
X158694951Y-153900972D01*
X158723597Y-153899062D01*
X158790675Y-153885988D01*
X158856657Y-153860745D01*
X158912342Y-153829423D01*
X158967223Y-153789160D01*
X159021299Y-153739957D01*
X159064891Y-153691841D01*
X159102244Y-153640917D01*
X159133359Y-153587185D01*
X159158235Y-153530645D01*
X159176873Y-153471297D01*
X159181699Y-153450890D01*
G37*
G36*
X158145896Y-154587726D02*
G01*
X157743923Y-154185753D01*
X157705140Y-154134500D01*
X157686085Y-154074124D01*
X157684988Y-154051259D01*
X157697189Y-153988881D01*
X157729017Y-153935622D01*
X157746514Y-153916332D01*
X157798759Y-153878547D01*
X157843013Y-153860851D01*
X157903776Y-153849436D01*
X157944046Y-153852647D01*
X158412511Y-154321112D01*
X158566651Y-154166972D01*
X157677432Y-153277753D01*
X157486808Y-153395409D01*
X157802859Y-153711460D01*
X157740327Y-153722232D01*
X157679263Y-153748475D01*
X157626216Y-153784790D01*
X157587193Y-153820049D01*
X157545756Y-153866252D01*
X157508291Y-153921326D01*
X157482541Y-153977660D01*
X157467456Y-154043585D01*
X157465651Y-154077165D01*
X157473652Y-154144291D01*
X157493603Y-154202118D01*
X157525640Y-154259099D01*
X157569764Y-154315232D01*
X157592374Y-154339030D01*
X157993483Y-154740139D01*
X158145896Y-154587726D01*
G37*
G36*
X157269198Y-154451073D02*
G01*
X157258407Y-154454910D01*
X157199144Y-154483947D01*
X157145401Y-154521988D01*
X157097140Y-154565706D01*
X157072235Y-154592653D01*
X157036200Y-154645021D01*
X157016723Y-154711682D01*
X157029899Y-154774726D01*
X157068212Y-154826924D01*
X157083583Y-154802787D01*
X157122399Y-154754603D01*
X157141854Y-154735647D01*
X157190249Y-154692868D01*
X157247865Y-154650229D01*
X157304979Y-154617078D01*
X157361593Y-154593413D01*
X157427008Y-154577796D01*
X157454506Y-154575046D01*
X157516245Y-154577779D01*
X157582656Y-154596587D01*
X157637135Y-154626770D01*
X157688226Y-154669761D01*
X157715847Y-154700313D01*
X157752787Y-154757297D01*
X157773300Y-154816844D01*
X157777385Y-154878951D01*
X157767428Y-154934811D01*
X157741710Y-154996491D01*
X157705948Y-155050287D01*
X157664695Y-155096560D01*
X157643135Y-155116602D01*
X157592361Y-155153673D01*
X157536029Y-155182050D01*
X157531486Y-155183870D01*
X157471653Y-155200540D01*
X157408443Y-155198673D01*
X157419300Y-155226028D01*
X157426145Y-155286753D01*
X157421916Y-155316483D01*
X157391388Y-155369867D01*
X157382062Y-155378824D01*
X157331157Y-155414987D01*
X157309931Y-155421834D01*
X157248690Y-155416714D01*
X157245839Y-155358763D01*
X157218327Y-155299109D01*
X157180589Y-155247799D01*
X157136863Y-155200400D01*
X156997403Y-155060940D01*
X156963540Y-155025859D01*
X156914558Y-154969433D01*
X156895943Y-154944148D01*
X157183277Y-154944148D01*
X157243724Y-155004595D01*
X157277631Y-155034238D01*
X157337034Y-155065660D01*
X157405023Y-155069694D01*
X157464602Y-155045332D01*
X157515736Y-155003731D01*
X157527684Y-154991105D01*
X157563249Y-154935709D01*
X157566273Y-154871156D01*
X157530416Y-154815482D01*
X157515545Y-154802015D01*
X157459647Y-154773128D01*
X157397756Y-154772629D01*
X157339939Y-154794796D01*
X157288395Y-154829200D01*
X157233794Y-154878088D01*
X157219059Y-154894660D01*
X157183277Y-154944148D01*
X156895943Y-154944148D01*
X156874894Y-154915557D01*
X156839597Y-154854274D01*
X156817719Y-154796663D01*
X156809153Y-154734094D01*
X156809365Y-154725515D01*
X156818936Y-154664810D01*
X156842658Y-154602968D01*
X156874257Y-154549056D01*
X156916252Y-154494310D01*
X156959192Y-154448050D01*
X156965946Y-154441370D01*
X157013661Y-154398276D01*
X157069130Y-154356894D01*
X157125596Y-154323905D01*
X157183061Y-154299307D01*
X157269198Y-154451073D01*
G37*
G36*
X156290173Y-155426213D02*
G01*
X156310918Y-155367039D01*
X156346842Y-155316214D01*
X156352778Y-155310068D01*
X156405811Y-155275382D01*
X156467488Y-155263597D01*
X156494397Y-155264301D01*
X156558342Y-155278256D01*
X156616762Y-155309758D01*
X156652639Y-155340507D01*
X157022877Y-155710745D01*
X157174642Y-155558980D01*
X156525268Y-154909606D01*
X156373503Y-155061372D01*
X156431360Y-155119228D01*
X156365529Y-155122345D01*
X156303395Y-155139683D01*
X156244959Y-155171242D01*
X156196859Y-155210522D01*
X156190219Y-155217023D01*
X156147507Y-155264331D01*
X156111724Y-155317762D01*
X156094799Y-155359505D01*
X156290173Y-155426213D01*
G37*
G36*
X156230373Y-156503249D02*
G01*
X156127613Y-156017946D01*
X156277436Y-156022263D01*
X156494397Y-156239225D01*
X156646162Y-156087460D01*
X155756944Y-155198241D01*
X155568694Y-155313522D01*
X156094152Y-155838979D01*
X155628278Y-155806597D01*
X155445641Y-155989233D01*
X155911731Y-156015787D01*
X156049896Y-156683727D01*
X156230373Y-156503249D01*
G37*
G36*
X155959225Y-156774397D02*
G01*
X155687214Y-157046409D01*
X155669007Y-157064052D01*
X155613517Y-157111092D01*
X155556721Y-157149298D01*
X155498620Y-157178670D01*
X155439214Y-157199208D01*
X155378502Y-157210911D01*
X155328231Y-157213504D01*
X155261217Y-157205446D01*
X155198129Y-157183753D01*
X155138966Y-157148423D01*
X155091379Y-157107287D01*
X155069707Y-157084322D01*
X155025423Y-157025485D01*
X154995274Y-156964613D01*
X154979261Y-156901707D01*
X154977384Y-156836766D01*
X154989642Y-156769791D01*
X154990770Y-156766841D01*
X155167585Y-156766841D01*
X155170393Y-156816553D01*
X155196137Y-156875651D01*
X155236236Y-156924435D01*
X155284134Y-156964785D01*
X155342490Y-156993416D01*
X155405919Y-156998699D01*
X155443787Y-156989431D01*
X155501468Y-156960422D01*
X155550649Y-156923857D01*
X155595895Y-156882122D01*
X155629141Y-156846718D01*
X155669295Y-156800087D01*
X155368140Y-156498931D01*
X155332102Y-156532757D01*
X155286536Y-156576649D01*
X155260546Y-156603752D01*
X155218098Y-156655105D01*
X155185537Y-156708329D01*
X155167585Y-156766841D01*
X154990770Y-156766841D01*
X155016036Y-156700781D01*
X154984373Y-156709010D01*
X154915140Y-156717601D01*
X154852416Y-156711336D01*
X154788701Y-156685987D01*
X154739922Y-156647890D01*
X154733274Y-156641089D01*
X154693751Y-156591950D01*
X154663608Y-156532501D01*
X154649495Y-156469544D01*
X154651411Y-156403080D01*
X154656874Y-156378673D01*
X154865531Y-156378673D01*
X154869182Y-156443989D01*
X154904425Y-156496773D01*
X154948434Y-156529944D01*
X155011553Y-156544894D01*
X155070943Y-156530526D01*
X155124941Y-156497820D01*
X155172119Y-156456187D01*
X155203746Y-156423775D01*
X155246382Y-156377174D01*
X155037624Y-156168416D01*
X155034108Y-156171560D01*
X154988915Y-156212786D01*
X154944147Y-156255848D01*
X154935612Y-156264579D01*
X154894284Y-156315339D01*
X154865531Y-156378673D01*
X154656874Y-156378673D01*
X154662879Y-156351847D01*
X154686829Y-156291903D01*
X154722163Y-156231774D01*
X154761510Y-156180086D01*
X154809221Y-156128262D01*
X154834646Y-156103248D01*
X154879733Y-156060117D01*
X154927194Y-156015617D01*
X154972959Y-155973222D01*
X155024374Y-155926000D01*
X155069575Y-155884746D01*
X155959225Y-156774397D01*
G37*
G36*
X155043237Y-157888997D02*
G01*
X155102073Y-157906504D01*
X155167403Y-157908831D01*
X155231751Y-157897948D01*
X155254370Y-157891588D01*
X155314479Y-157868691D01*
X155372619Y-157837131D01*
X155428789Y-157796910D01*
X155476322Y-157754610D01*
X155482989Y-157748026D01*
X155348279Y-157613315D01*
X155295666Y-157661828D01*
X155238430Y-157703318D01*
X155179789Y-157728662D01*
X155117266Y-157724757D01*
X155088788Y-157704849D01*
X155048757Y-157653339D01*
X155017272Y-157599085D01*
X154988084Y-157540013D01*
X154961849Y-157480764D01*
X154661341Y-156773534D01*
X154503963Y-156930912D01*
X154775111Y-157556538D01*
X154167187Y-157267688D01*
X154009809Y-157425066D01*
X155043237Y-157888997D01*
G37*
G36*
X154020387Y-157656276D02*
G01*
X154095730Y-157580933D01*
X153974836Y-157460039D01*
X153899493Y-157535382D01*
X153763487Y-157399376D01*
X153554297Y-157493717D01*
X153747728Y-157687147D01*
X153569193Y-157865682D01*
X153690087Y-157986576D01*
X153868622Y-157808041D01*
X154154882Y-158094301D01*
X154195695Y-158140267D01*
X154227422Y-158195630D01*
X154232383Y-158215411D01*
X154219077Y-158277025D01*
X154184889Y-158320761D01*
X154136771Y-158359046D01*
X154081171Y-158385146D01*
X154052985Y-158393082D01*
X154192445Y-158532542D01*
X154249479Y-158497609D01*
X154302758Y-158454956D01*
X154349145Y-158411968D01*
X154361265Y-158399990D01*
X154403591Y-158350783D01*
X154436274Y-158293908D01*
X154454042Y-158228831D01*
X154455606Y-158195550D01*
X154443968Y-158129039D01*
X154417055Y-158070118D01*
X154380059Y-158018488D01*
X154350687Y-157986576D01*
X154020387Y-157656276D01*
G37*
G36*
X153508554Y-158139606D02*
G01*
X153577045Y-158152440D01*
X153642971Y-158176066D01*
X153706332Y-158210485D01*
X153757172Y-158247412D01*
X153806232Y-158291833D01*
X153834251Y-158321370D01*
X153874869Y-158371264D01*
X153913578Y-158432237D01*
X153941344Y-158494408D01*
X153958165Y-158557779D01*
X153964042Y-158622349D01*
X153962889Y-158654752D01*
X153952693Y-158718226D01*
X153931979Y-158779925D01*
X153900745Y-158839847D01*
X153858992Y-158897994D01*
X153816162Y-158945093D01*
X153806232Y-158954896D01*
X153756984Y-158999703D01*
X153698776Y-159044203D01*
X153641541Y-159078594D01*
X153575993Y-159105940D01*
X153511769Y-159119526D01*
X153453912Y-158943797D01*
X153501014Y-158938755D01*
X153560936Y-158917730D01*
X153613597Y-158885307D01*
X153665693Y-158839958D01*
X153675813Y-158829512D01*
X153714028Y-158781776D01*
X153742430Y-158727333D01*
X153756579Y-158665741D01*
X153752268Y-158604609D01*
X153729539Y-158546180D01*
X153692894Y-158495410D01*
X153228531Y-158959773D01*
X153178261Y-158926276D01*
X153129657Y-158886805D01*
X153113579Y-158870057D01*
X153071558Y-158817992D01*
X153038857Y-158763195D01*
X153015476Y-158705666D01*
X153001415Y-158645404D01*
X152996674Y-158582411D01*
X152997200Y-158561075D01*
X153001523Y-158528150D01*
X153191554Y-158528150D01*
X153195108Y-158595669D01*
X153219071Y-158655252D01*
X153253789Y-158706111D01*
X153573295Y-158386605D01*
X153562091Y-158379534D01*
X153507539Y-158351410D01*
X153445304Y-158333579D01*
X153377147Y-158334725D01*
X153313784Y-158359506D01*
X153263288Y-158399558D01*
X153254678Y-158408458D01*
X153214281Y-158462780D01*
X153191554Y-158528150D01*
X153001523Y-158528150D01*
X153005417Y-158498486D01*
X153023591Y-158438023D01*
X153051724Y-158379684D01*
X153089813Y-158323470D01*
X153137861Y-158269381D01*
X153154709Y-158253280D01*
X153207955Y-158211242D01*
X153265254Y-158178599D01*
X153326606Y-158155352D01*
X153392010Y-158141501D01*
X153461468Y-158137046D01*
X153508554Y-158139606D01*
G37*
D11*
%TO.C,REF\u002A\u002A*%
X143000000Y-150050000D03*
D12*
X150000000Y-142550000D03*
X150000000Y-157550000D03*
D11*
X157000000Y-150050000D03*
%TD*%
D13*
%TO.C,TP1*%
X146500000Y-156450000D03*
%TD*%
D14*
%TO.C,JP1*%
X155450000Y-145350000D03*
D15*
X154000000Y-145350000D03*
%TD*%
D16*
%TO.C,J1*%
X143090381Y-146625914D03*
X143974264Y-145742031D03*
X144858148Y-144858148D03*
X145742031Y-143974264D03*
X146625914Y-143090381D03*
D17*
X139519491Y-145671320D03*
X145671320Y-139519491D03*
%TD*%
M02*
